<svg width="3614" height="416" viewBox="0 0 3614 416" fill="none" xmlns="http://www.w3.org/2000/svg">
<path d="M74.6699 143.748C79.2398 142.588 85.1816 141.734 89.4282 144.185C89.7577 143.689 90.0872 143.193 90.4267 142.682C93.2397 138.595 96.0005 135.348 99.7846 132.122C102.676 129.44 102.676 129.44 103.565 125.771C103.29 124.136 102.969 122.509 102.611 120.89C100.717 108.024 107.397 95.0205 114.5 84.7598C122.207 74.9112 132.783 65.8139 145.356 63.3149C153.513 62.8279 159.877 63.7166 166.543 68.6187C172.244 74.4586 175.613 81.825 175.871 89.9852C175.248 104.326 170.228 116.656 161.194 127.884C161.724 128.286 162.254 128.687 162.801 129.101C172.108 138.1 175.149 152.238 176.906 164.669C176.576 165.24 176.246 165.812 175.906 166.401C176.746 166.885 177.585 167.37 178.45 167.87C183.715 172.058 184.851 179.076 185.69 185.432C186.058 190.944 185.816 195.756 184.574 201.138C183.236 207.415 185.146 211.774 188.083 217.31C192.268 217.885 195.671 216.911 199.711 215.796C200.948 215.459 202.186 215.123 203.461 214.776C206.465 213.912 209.413 212.93 212.365 211.902C217.96 209.972 223.626 208.384 229.341 206.85C230.331 206.575 231.322 206.301 232.342 206.018C248.611 201.635 248.611 201.635 255.983 205.705C256.51 206.771 257.037 207.838 257.581 208.937C255.559 214.683 251.966 216.494 246.757 219.29C242.254 221.436 237.632 222.83 232.838 224.168C231.858 224.452 230.878 224.737 229.869 225.029C223.881 226.756 217.869 228.389 211.838 229.955C208.283 230.939 204.815 232.127 201.341 233.363C199.269 234.071 197.195 234.661 195.074 235.202C194.771 238.584 194.982 241.681 195.379 245.049C196.51 257.512 196.458 271.822 188.662 282.307C185.926 284.047 185.926 284.047 183.564 285.137C178.161 281.45 178.161 281.45 177.49 278.595C177.384 275.154 177.655 271.849 177.987 268.422C178.124 266.967 178.26 265.512 178.396 264.057C178.469 263.293 178.542 262.529 178.616 261.742C179.013 257.472 179.363 253.198 179.717 248.925C179.852 247.32 179.986 245.715 180.12 244.11C180.217 242.95 180.314 241.79 180.413 240.594C179.842 240.264 179.27 239.934 178.681 239.594C176.733 240.105 176.733 240.105 174.481 240.994C166.993 243.664 159.299 245.563 151.613 247.564C142.623 249.882 142.623 249.882 133.788 252.719C125.827 255.531 117.591 257.503 109.434 259.659C107.703 260.119 105.972 260.58 104.241 261.04C100.036 262.159 95.829 263.274 91.6218 264.386C91.3696 267.636 91.5188 270.088 92.4352 273.227C92.8031 274.487 93.1709 275.748 93.55 277.046C94.1945 277.085 94.839 277.124 95.503 277.163C96.746 277.238 96.746 277.238 98.0141 277.314C98.6879 277.307 99.3617 277.3 100.056 277.293C105.263 277.914 109.649 280.948 113.737 284.082C118.101 289.634 120.344 296.307 122.459 302.974C123.449 301.26 124.439 299.545 125.459 297.778C126.021 297.96 126.583 298.141 127.162 298.329C131.152 299.359 134.22 299.285 138.136 298.025C138.937 297.772 139.738 297.52 140.563 297.259C141.408 296.986 142.254 296.712 143.125 296.431C144.898 295.875 146.672 295.32 148.447 294.767C149.746 294.36 149.746 294.36 151.072 293.945C159.868 291.221 168.594 289.136 177.699 287.764C179.977 287.42 182.251 287.047 184.519 286.64C202.51 283.427 226.394 279.285 242.837 289.012C245.97 291.278 247.121 293.421 248.258 297.085C248.885 303.116 247.401 306.839 244.265 311.915C235.192 326.878 229.43 337.478 231.607 355.292C230.986 359.686 229.632 361.116 226.213 363.801C222.363 366.029 218.468 366.511 214.1 366.997C213.193 367.12 212.286 367.242 211.352 367.368C208.79 367.71 206.226 368.022 203.66 368.331C201.691 368.61 199.723 368.892 197.756 369.181C195.96 369.421 194.163 369.658 192.365 369.893C190.453 370.148 188.54 370.403 186.627 370.659C185.235 370.844 183.843 371.028 182.451 371.211C178.992 371.665 175.536 372.132 172.084 372.631C156.798 374.815 141.59 375.497 126.156 375.622C125.205 375.631 124.253 375.64 123.273 375.65C122.425 375.655 121.577 375.66 120.703 375.665C118.416 375.695 118.416 375.695 115.806 376.498C113.47 375.294 113.47 375.294 111.476 373.998C112.299 371.947 112.299 371.947 113.976 369.668C116.23 368.981 118.513 368.385 120.806 367.838C122.749 367.305 124.692 366.773 126.635 366.238C129.663 365.407 132.694 364.583 135.725 363.76C137.306 363.329 138.886 362.896 140.465 362.46C149.351 360.009 158.112 357.85 167.245 356.49C171.615 355.838 175.933 354.97 180.265 354.102C187.201 352.74 194.116 351.576 201.133 350.707C203.251 350.416 205.369 350.123 207.486 349.828C209.133 349.6 210.78 349.372 212.428 349.144C212.572 347.448 212.572 347.448 212.719 345.718C214.325 328.394 220.014 315.798 230.499 301.843C219.918 301.306 209.66 300.953 199.117 302.199C195.511 302.58 191.904 302.947 188.297 303.314C187.332 303.413 186.367 303.512 185.373 303.613C182.592 303.897 179.81 304.179 177.028 304.458C176.302 304.531 175.576 304.604 174.829 304.679C164.117 305.728 153.437 306.022 142.683 306.223C138.705 306.311 134.729 306.457 130.753 306.608C130.627 307.226 130.501 307.843 130.371 308.479C130.043 310.08 129.713 311.681 129.381 313.281C129.064 314.851 128.759 316.424 128.479 318.001C126.123 330.842 121.534 343.242 117.233 355.527C116.845 356.645 116.457 357.762 116.057 358.914C111.155 372.737 111.155 372.737 106.399 375.542C102.618 376.333 100.976 375.835 97.5833 374.06C97.1657 373.629 96.748 373.197 96.3178 372.752C93.9614 370.591 91.3093 369.312 88.4945 367.803C79.7127 362.884 71.7371 356.559 68.3083 346.766C67.2831 339.429 68.6533 334.557 72.9782 328.678C80.9925 320.939 93.9057 319.055 104.531 318.027C105.447 311.243 104.571 303.691 101.5 297.518C99.5896 295.276 97.5431 294.015 95.0005 292.534C93.6734 291.739 93.6734 291.739 92.3195 290.927C89.3079 289.662 87.8443 289.898 84.684 290.403C80.131 288.281 78.7505 286.752 76.8405 282.058C75.663 278.534 74.6681 274.971 73.7295 271.376C68.9304 270.249 65.1276 271.249 60.5218 272.628C55.1492 274.196 49.8103 275.471 44.3115 276.52C39.5825 277.46 34.9041 278.611 30.2176 279.741C22.9804 281.486 15.7389 283.076 8.4282 284.482C7.21192 284.732 5.99564 284.982 4.74251 285.24C3.86984 285.308 2.99718 285.376 2.09808 285.446C1.40571 284.665 0.713346 283.884 0 283.08C0.209212 282.057 0.418423 281.035 0.633974 279.982C2.83781 278.836 2.83781 278.836 5.80681 277.772C6.89808 277.372 7.98935 276.972 9.1137 276.56C10.2517 276.151 11.3897 275.742 12.5622 275.321C14.6649 274.516 16.7668 273.709 18.8678 272.9C24.8057 270.659 30.784 268.547 36.7761 266.457C42.5073 264.451 48.1832 262.328 53.8461 260.136C56.5429 259.144 56.5429 259.144 58.8846 258.706C60.7698 258.214 60.7698 258.214 61.5124 256.474C61.8869 253.063 61.429 249.804 61.0029 246.419C60.2849 240.21 60.1393 234.282 60.4258 228.044C60.8898 215.412 57.5975 202.974 53 191.281C49.9333 175.746 59.4941 150.373 74.6699 143.748ZM118.821 117.276C122.916 119.641 124.051 119.281 128.598 118.591C134.872 117.799 140.3 118.1 146.471 119.384C153.28 111.171 159.349 101.148 158.788 90.0502C158.619 89.0236 158.45 87.997 158.275 86.9392C158.191 86.1765 158.108 85.4138 158.022 84.6279C156.632 81.6892 154.97 80.9938 151.981 79.8412C143.737 80.0537 138.067 84.682 131.974 89.8688C125.023 97.6191 120.745 107.134 118.821 117.276ZM81.6697 236.124C82.0213 237.386 82.3728 238.649 82.7351 239.95C83.5988 243.046 84.4752 246.137 85.3634 249.226C94.6759 247.546 103.617 245.274 112.555 242.151C116.148 240.923 119.761 239.77 123.381 238.627C124.025 238.423 124.669 238.218 125.333 238.007C130.441 236.4 135.592 235.016 140.775 233.672C152.339 230.664 152.339 230.664 163.361 226.13C163.234 224.463 163.234 224.463 163.105 222.762C162.558 215.211 162.13 207.735 162.259 200.163C162.43 186.67 161.084 173.292 158.818 159.999C158.694 158.941 158.694 158.941 158.568 157.861C157.726 151.104 154.962 144.781 150.046 140.068C149.37 139.63 148.694 139.192 147.997 138.741C147.051 139.324 147.051 139.324 146.086 139.919C138.217 144.561 131.256 147.022 122.043 145.695C120.573 145.117 119.106 144.534 117.64 143.947C114.462 142.85 114.462 142.85 111.358 143.788C87.5318 163.036 73.3757 207.317 81.6697 236.124ZM84.7006 342.374C85.0578 343.013 85.4151 343.653 85.7831 344.311C88.5528 349.282 91.2746 354.264 93.8503 359.339C94.6979 361.034 94.6979 361.034 96.5211 361.9C98.0434 358.038 99.5499 354.169 101.054 350.3C101.487 349.202 101.919 348.104 102.365 346.973C102.774 345.917 103.182 344.862 103.603 343.774C103.983 342.802 104.363 341.83 104.754 340.829C105.765 338.125 105.765 338.125 105.325 334.651C102.514 335.202 99.7102 335.774 96.9062 336.358C96.1113 336.512 95.3163 336.665 94.4973 336.823C89.7382 337.817 89.7382 337.817 85.8312 340.595C85.4581 341.182 85.085 341.769 84.7006 342.374Z" fill="black"/>
<path d="M214.435 9.66679C223.918 7.23977 231.607 8.73745 240.22 13.0065C240.823 12.0448 241.426 11.083 242.047 10.0921C246.76 3.95765 253.571 1.78706 260.967 0.447248C275.455 -1.33354 287.522 2.25496 299.521 10.2937C301.444 11.9504 302.962 13.5647 304.583 15.5258C305.533 15.1539 305.533 15.1539 306.501 14.7746C313.967 12.0133 319.894 10.7961 327.538 13.7674C338.336 19.0368 345.902 24.9439 350.4 36.3803C351.748 41.1696 352.279 46.1171 352.179 51.0879C351.684 51.9453 351.189 52.8027 350.679 53.686C351.38 53.7096 352.081 53.7332 352.803 53.7575C358.399 54.9732 362.831 57.1948 366.49 61.6913C370.234 67.7576 371.229 72.9118 370.16 79.9444C368.169 87.9991 363.263 92.9359 356.562 97.4969C351.263 100.254 345.862 102.729 340.035 104.121C340.183 104.973 340.331 105.825 340.484 106.703C340.763 108.394 340.763 108.394 341.047 110.118C341.329 111.788 341.329 111.788 341.617 113.492C342.316 120.13 340.642 124.661 336.695 129.906C329.419 137.611 321.81 140.76 311.333 141.46C300.206 141.661 288.172 140.651 278.626 134.485C278.104 135.183 277.581 135.882 277.043 136.602C272.812 141.382 269.564 143.039 263.236 143.641C261.159 143.759 259.081 143.859 257.002 143.939C256.278 143.989 255.554 144.038 254.809 144.089C245.394 144.482 235.818 141.222 228.387 135.501C223.792 130.689 219.855 124.543 219.921 117.704C219.969 116.824 220.017 115.944 220.067 115.037C220.361 108.749 218.241 105.543 214.146 100.793C212.173 98.009 211.928 95.7633 211.71 92.3867C212.217 90.009 212.217 90.009 212.844 88.4226C212.016 88.2065 211.188 87.9905 210.335 87.7679C206.179 85.8387 203.954 83.6846 201.72 79.6905C199.15 72.0158 198.974 64.3043 201.342 56.5949C202.337 53.2513 202.337 53.2513 200.415 50.575C199.706 49.6176 198.996 48.6602 198.265 47.6738C194.368 39.9909 194.613 32.5184 196.811 24.3176C201.084 16.6018 205.971 12.2528 214.435 9.66679ZM207.962 42.8796C208.247 43.0446 208.533 43.2096 208.828 43.3796C209.267 42.9364 209.705 42.4932 210.158 42.0366C214.031 38.3318 216.643 36.0963 222.256 36.1213C224.967 36.676 224.967 36.676 227.086 37.7553C228.684 40.9873 228.684 40.9873 227.709 44.1769C226.132 47.3821 224.473 49.5371 222.184 52.2456C218.186 57.7788 216.383 62.9566 216.648 69.8341C217.346 73.4267 218.596 76.2654 220.964 79.1095C224.036 81.0837 227.201 82.336 230.603 83.6642C229.975 86.7313 229.347 89.7984 228.701 92.9585C232.088 91.6038 235.074 89.9437 238.18 88.0392C243.089 85.3057 245.994 84.4115 251.557 85.37C256.865 88.7867 256.865 88.7867 257.485 91.102C255.179 96.9472 251.639 98.8225 246.128 101.595C241.372 104.096 239.079 107.938 236.923 112.717C236.512 116.676 236.841 118.182 238.619 121.779C244.73 126.484 251.006 127.175 258.443 128.069C263.255 128.693 267.881 129.731 272.564 130.985C271.056 127.83 271.056 127.83 269.466 125.227C268.136 122.655 268.136 122.655 267.904 119.057C268.721 117.039 268.721 117.039 269.883 115.003C270.255 114.325 270.628 113.647 271.011 112.948C272.75 110.843 273.808 110.455 276.502 110.164C279.721 111.589 279.721 111.589 282.564 113.664C282.738 114.335 282.912 115.005 283.091 115.696C283.55 118.187 283.55 118.187 286.853 120.11C296.169 125.034 307.494 126.226 317.583 123.228C321.132 121.519 323.591 119.267 326.274 116.456C326.745 115.986 327.216 115.516 327.701 115.031C330.551 112.116 332.689 109.197 334.571 105.585C333.993 105.738 333.415 105.891 332.819 106.049C327.379 107.31 323.99 107.559 318.947 104.648C317.109 103.081 317.109 103.081 316.483 100.915C317.187 97.5625 317.538 96.057 319.617 93.4873C322.802 91.7492 326.178 90.9597 329.679 90.0591C343.143 86.4269 343.143 86.4269 353.44 77.6528C354.181 72.2701 352.124 68.2104 349.643 63.4803C349.357 63.3153 349.071 63.1503 348.777 62.9803C346.72 65.2224 344.664 67.4644 342.545 69.7745C334.689 66.8871 334.689 66.8871 333.019 64.2745C333.306 61.6099 333.777 59.0007 334.244 56.3625C335.423 49.4166 335.74 44.1699 332.571 37.6745C328.143 32.4487 323.822 28.9926 316.868 28.2476C315.36 28.17 313.851 28.1123 312.342 28.0879C311.605 28.0437 310.869 27.9995 310.11 27.954C309.765 28.5749 309.419 29.1958 309.064 29.8355C308.612 30.636 308.16 31.4365 307.695 32.2612C307.247 33.0608 306.799 33.8603 306.337 34.6841C305.11 36.6142 305.11 36.6142 303.744 36.9803C299.212 34.886 296.634 32.9876 293.756 28.9045C288.303 21.641 280.934 18.1053 272.137 16.3503C265.039 15.4689 256.277 15.8024 250.112 19.8726C250.592 20.3461 251.072 20.8195 251.566 21.3074C256.34 26.1651 260.306 30.2911 260.624 37.4162C260.078 40.5682 259.221 42.2869 257.567 44.961C256.078 44.165 254.597 43.3543 253.12 42.538C252.295 42.0883 251.469 41.6385 250.619 41.1751C248.04 39.461 248.04 39.461 245.606 36.9191C242.783 34.029 239.823 31.9629 236.346 29.9667C235.74 29.6186 235.134 29.2706 234.509 28.912C228.554 25.659 223.302 24.2645 216.658 25.8169C210.489 30.1042 209.513 35.8899 207.962 42.8796Z" fill="black"/>
<path d="M201.133 105.332C203.478 102.645 203.478 102.645 207.197 101.328C211.174 101.315 211.174 101.315 214.368 103.159C217.784 106.797 217.784 106.797 217.835 109.779C217.044 113.148 217.044 113.148 215.201 116.341C211.75 118.318 211.75 118.318 207.87 119.037C204.496 117.883 204.496 117.883 201.808 115.537C199.911 111.456 199.671 109.604 201.133 105.332Z" fill="black"/>
<path d="M182.001 108.72C184.498 105.809 186.213 104.912 189.952 104.073C193.717 104.819 195.164 105.53 197.405 108.665C198.478 111.305 198.478 111.305 198.71 114.903C196.689 118.128 195.151 120.067 191.718 121.764C187.682 121.999 185.939 120.954 182.818 118.43C181.11 114.614 180.604 112.69 182.001 108.72Z" fill="black"/>
<path d="M719.561 108.89C723.001 100.592 729.633 94.5761 737.837 91.1741C739.649 90.5282 741.469 89.9012 743.306 89.3298C743.259 88.4432 743.212 87.5565 743.163 86.6429C742.816 75.207 744.1 66.2283 751.701 57.3411C761.453 47.4143 773.658 42.7108 787.505 42.2689C805.286 42.4672 821.931 48.4566 835.075 60.4573C844.357 70.0917 846.559 81.1959 846.383 94.0956C846.096 100.608 844.153 106.602 842.007 112.733C847.882 113.048 853.169 112.896 858.287 109.681C860.239 106.627 860.239 106.627 861.34 103.575C864.63 101.93 866.863 102.073 870.498 102.558C877.928 107.529 879.581 117.621 881.269 125.794C883.477 142.665 881.606 157.953 871.034 171.75C856.195 189.365 832.739 197.528 810.463 200.241C805.795 200.529 801.148 200.581 796.472 200.559C795.221 200.554 793.971 200.549 792.682 200.544C773.26 200.294 753.814 196.299 738.946 182.879C730.509 174.049 726.086 162.794 725.754 150.636C725.991 140.444 728.171 130.601 731.096 120.873C729.941 120.244 728.787 119.614 727.598 118.966C724.1 117.058 724.1 117.058 722.955 114.768C721.948 114.432 720.941 114.097 719.903 113.751C718.885 111.716 718.885 111.716 719.561 108.89ZM741.271 107.645C749.289 110.417 757.286 111.704 765.692 112.733C765.692 110.718 765.692 108.704 765.692 106.628C756.808 104.09 750.154 104.09 741.271 106.628C741.271 106.964 741.271 107.299 741.271 107.645ZM751.112 170.816C765.844 182.952 786.747 185.095 805.143 183.505C824.363 181.49 845.415 175.868 858.16 160.255C863.257 152.953 864.718 146.704 864.583 137.917C864.582 136.674 864.582 136.674 864.581 135.405C864.661 131.054 864.661 131.054 863.375 126.979C861.99 127.482 861.99 127.482 860.577 127.996C854.474 129.692 847.428 130.496 841.518 127.909C839.553 126.67 837.73 125.356 835.902 123.926C835.23 123.59 834.558 123.254 833.867 122.908C833.195 123.244 832.523 123.58 831.832 123.926C829.112 124.063 826.416 123.97 823.691 123.926C822.109 120.323 821.493 118.447 822.499 114.581C822.976 113.489 823.454 112.396 823.946 111.27C824.668 109.523 824.668 109.523 825.404 107.741C825.846 106.702 826.288 105.663 826.744 104.593C829.554 97.2338 830.243 88.3051 828.044 80.6728C824.384 72.8802 817.447 66.8741 809.505 63.7206C797.473 59.6312 784.926 57.1245 772.938 62.7348C767.787 65.4953 764.18 67.6473 761.622 73.0493C761.622 73.7209 761.622 74.3924 761.622 75.0844C762.247 75.0726 762.873 75.0607 763.518 75.0486C764.34 75.0394 765.162 75.0302 766.01 75.0208C766.824 75.009 767.639 74.9971 768.478 74.985C770.779 75.0844 770.779 75.0844 773.832 76.1019C775.216 83.5252 775.216 83.5252 773.387 87.104C772.6 88.2058 772.6 88.2058 771.797 89.3298C771.797 90.3372 771.797 91.3446 771.797 92.3824C772.469 92.3824 773.14 92.3824 773.832 92.3824C775.929 96.5764 775.814 99.0411 774.85 103.575C774.376 107.722 774.376 107.722 777.203 110.062C778.105 110.944 779.007 111.825 779.937 112.733C782.791 117.259 783.583 120.625 782.99 125.961C781.845 128.378 781.845 128.378 779.937 130.031C774.355 131.566 769.372 130.596 763.784 129.65C762.027 129.365 760.27 129.082 758.513 128.799C757.672 128.662 756.83 128.524 755.963 128.383C752.431 127.832 748.891 127.399 745.341 126.979C742.516 141.938 739.742 158.848 751.112 170.816Z" fill="black"/>
<path d="M751.112 170.816C765.844 182.952 786.747 185.095 805.143 183.505C824.363 181.49 845.415 175.868 858.16 160.255C863.257 152.953 864.718 146.704 864.583 137.917L864.581 135.405C864.661 131.054 864.661 131.054 863.375 126.979L860.577 127.996C854.474 129.692 847.428 130.496 841.518 127.909C839.553 126.67 837.73 125.356 835.902 123.926L833.867 122.908L831.832 123.926C829.112 124.063 826.416 123.97 823.691 123.926C822.109 120.323 821.493 118.447 822.499 114.581L823.946 111.27L825.404 107.741L826.744 104.593C829.554 97.2338 830.243 88.3051 828.044 80.6728C824.384 72.8802 817.447 66.8741 809.505 63.7206C797.473 59.6312 784.926 57.1245 772.938 62.7348C767.787 65.4953 764.18 67.6473 761.622 73.0493L761.622 75.0844L763.518 75.0486L766.01 75.0208L768.478 74.985C770.779 75.0844 770.779 75.0844 773.832 76.1019C775.216 83.5252 775.216 83.5252 773.387 87.104L771.797 89.3298L771.797 92.3824L773.832 92.3824C775.929 96.5764 775.814 99.0411 774.85 103.575C774.376 107.722 774.376 107.722 777.203 110.062L779.937 112.733C782.791 117.259 783.583 120.625 782.99 125.961C781.845 128.378 781.845 128.378 779.937 130.031C774.355 131.566 769.372 130.596 763.784 129.65C762.027 129.365 760.27 129.082 758.513 128.799L755.963 128.383C752.431 127.832 748.891 127.399 745.341 126.979C742.516 141.938 739.742 158.848 751.112 170.816Z" fill="#48FF5E"/>
<path d="M741.271 107.645C749.289 110.417 757.286 111.704 765.692 112.733L765.692 106.628C756.808 104.09 750.154 104.09 741.271 106.628L741.271 107.645Z" fill="#F59713"/>
<path d="M784.961 138.299C788.621 134.528 791.809 133.835 796.981 133.465C797.983 133.389 798.985 133.313 800.018 133.235C800.778 133.185 801.539 133.135 802.323 133.084C802.959 134.992 802.959 134.992 803.34 137.154C802.669 137.825 801.997 138.497 801.305 139.189C800.776 141.209 800.251 143.23 799.787 145.266C799.27 147.329 799.27 147.329 798.126 150.127C796.989 152.64 796.989 152.64 797.235 156.487C804.66 159.219 812.825 160.25 820.702 159.094C824.202 158.594 827.539 158.315 831.068 158.204C832.081 158.166 833.093 158.128 834.137 158.089C837.677 158.64 838.823 159.795 840.989 162.592C841.562 165.581 841.562 165.581 840.989 168.697C837.147 174.205 831.996 175.466 825.726 176.838C821.877 177.26 818.085 177.324 814.215 177.283C813.191 177.275 812.166 177.267 811.111 177.26C801.025 177.037 790.818 175.846 783.3 168.383C776.181 159.155 778.838 147.384 784.961 138.299Z" fill="black"/>
<path d="M779.937 88.3124C782.036 85.3234 782.036 85.3234 785.025 83.2247C789.093 82.5824 791.137 82.5336 794.564 84.8782C796.609 87.8675 797.161 89.7773 797.235 93.4C795.977 96.3136 794.863 97.9717 792.338 99.8868C789.183 100.788 787.145 100.42 784.007 99.5053C779.51 96.428 779.105 93.582 779.937 88.3124Z" fill="black"/>
<path d="M917.561 306.89C921.001 298.592 927.633 292.576 935.837 289.174C937.649 288.528 939.469 287.901 941.306 287.33C941.259 286.443 941.212 285.556 941.163 284.643C940.816 273.207 942.1 264.228 949.701 255.341C959.453 245.414 971.658 240.711 985.505 240.269C1003.29 240.467 1019.93 246.457 1033.07 258.457C1042.36 268.092 1044.56 279.196 1044.38 292.096C1044.1 298.608 1042.15 304.602 1040.01 310.733C1045.88 311.048 1051.17 310.896 1056.29 307.681C1058.24 304.627 1058.24 304.627 1059.34 301.575C1062.63 299.93 1064.86 300.073 1068.5 300.558C1075.93 305.529 1077.58 315.621 1079.27 323.794C1081.48 340.665 1079.61 355.953 1069.03 369.75C1054.19 387.365 1030.74 395.528 1008.46 398.241C1003.8 398.529 999.148 398.581 994.472 398.559C993.221 398.554 991.971 398.549 990.682 398.544C971.26 398.294 951.814 394.299 936.946 380.879C928.509 372.049 924.086 360.794 923.754 348.636C923.991 338.444 926.171 328.601 929.096 318.873C927.941 318.244 926.787 317.614 925.598 316.966C922.1 315.058 922.1 315.058 920.955 312.768C919.948 312.432 918.941 312.097 917.903 311.751C916.885 309.716 916.885 309.716 917.561 306.89ZM939.271 305.645C947.289 308.417 955.286 309.704 963.692 310.733C963.692 308.718 963.692 306.704 963.692 304.628C954.808 302.09 948.154 302.09 939.271 304.628C939.271 304.964 939.271 305.299 939.271 305.645ZM949.112 368.816C963.844 380.952 984.747 383.095 1003.14 381.505C1022.36 379.49 1043.41 373.868 1056.16 358.255C1061.26 350.953 1062.72 344.704 1062.58 335.917C1062.58 334.674 1062.58 334.674 1062.58 333.405C1062.66 329.054 1062.66 329.054 1061.38 324.979C1059.99 325.482 1059.99 325.482 1058.58 325.996C1052.47 327.692 1045.43 328.496 1039.52 325.909C1037.55 324.67 1035.73 323.356 1033.9 321.926C1033.23 321.59 1032.56 321.254 1031.87 320.908C1031.2 321.244 1030.52 321.58 1029.83 321.926C1027.11 322.063 1024.42 321.97 1021.69 321.926C1020.11 318.323 1019.49 316.447 1020.5 312.581C1020.98 311.489 1021.45 310.396 1021.95 309.27C1022.67 307.523 1022.67 307.523 1023.4 305.741C1023.85 304.702 1024.29 303.663 1024.74 302.593C1027.55 295.234 1028.24 286.305 1026.04 278.673C1022.38 270.88 1015.45 264.874 1007.51 261.721C995.473 257.631 982.926 255.125 970.938 260.735C965.787 263.495 962.18 265.647 959.622 271.049C959.622 271.721 959.622 272.392 959.622 273.084C960.247 273.073 960.873 273.061 961.518 273.049C962.34 273.039 963.162 273.03 964.01 273.021C964.824 273.009 965.639 272.997 966.478 272.985C968.779 273.084 968.779 273.084 971.832 274.102C973.216 281.525 973.216 281.525 971.387 285.104C970.6 286.206 970.6 286.206 969.797 287.33C969.797 288.337 969.797 289.345 969.797 290.382C970.469 290.382 971.14 290.382 971.832 290.382C973.929 294.576 973.814 297.041 972.85 301.575C972.376 305.722 972.376 305.722 975.203 308.062C976.105 308.944 977.007 309.825 977.937 310.733C980.791 315.259 981.583 318.625 980.99 323.961C979.845 326.378 979.845 326.378 977.937 328.031C972.355 329.566 967.372 328.596 961.784 327.65C960.027 327.365 958.27 327.082 956.513 326.799C955.672 326.662 954.83 326.524 953.963 326.383C950.431 325.832 946.891 325.399 943.341 324.979C940.516 339.938 937.742 356.848 949.112 368.816Z" fill="black"/>
<path d="M949.112 368.816C963.844 380.952 984.747 383.095 1003.14 381.505C1022.36 379.49 1043.41 373.868 1056.16 358.255C1061.26 350.953 1062.72 344.704 1062.58 335.917L1062.58 333.405C1062.66 329.054 1062.66 329.054 1061.38 324.979L1058.58 325.996C1052.47 327.692 1045.43 328.496 1039.52 325.909C1037.55 324.67 1035.73 323.356 1033.9 321.926L1031.87 320.908L1029.83 321.926C1027.11 322.063 1024.42 321.97 1021.69 321.926C1020.11 318.323 1019.49 316.447 1020.5 312.581L1021.95 309.27L1023.4 305.741L1024.74 302.593C1027.55 295.234 1028.24 286.305 1026.04 278.673C1022.38 270.88 1015.45 264.874 1007.51 261.721C995.473 257.631 982.926 255.125 970.938 260.735C965.787 263.495 962.18 265.647 959.622 271.049L959.622 273.084L961.518 273.049L964.01 273.021L966.478 272.985C968.779 273.084 968.779 273.084 971.832 274.102C973.216 281.525 973.216 281.525 971.387 285.104L969.797 287.33L969.797 290.382L971.832 290.382C973.929 294.576 973.814 297.041 972.85 301.575C972.376 305.722 972.376 305.722 975.203 308.062L977.937 310.733C980.791 315.259 981.583 318.625 980.99 323.961C979.845 326.378 979.845 326.378 977.937 328.031C972.355 329.566 967.372 328.596 961.784 327.65C960.027 327.365 958.27 327.082 956.513 326.799L953.963 326.383C950.431 325.832 946.891 325.399 943.341 324.979C940.516 339.938 937.742 356.848 949.112 368.816Z" fill="#F048FF"/>
<path d="M939.271 305.645C947.289 308.417 955.286 309.704 963.692 310.733L963.692 304.628C954.808 302.09 948.154 302.09 939.271 304.628L939.271 305.645Z" fill="#F59713"/>
<path d="M982.961 336.299C986.621 332.528 989.809 331.835 994.981 331.465C995.983 331.389 996.985 331.313 998.018 331.235C998.778 331.185 999.539 331.135 1000.32 331.084C1000.96 332.992 1000.96 332.992 1001.34 335.154C1000.67 335.825 999.997 336.497 999.305 337.189C998.776 339.209 998.251 341.23 997.787 343.266C997.27 345.329 997.27 345.329 996.126 348.127C994.989 350.64 994.989 350.64 995.235 354.487C1002.66 357.219 1010.83 358.25 1018.7 357.094C1022.2 356.594 1025.54 356.315 1029.07 356.204C1030.08 356.166 1031.09 356.128 1032.14 356.089C1035.68 356.64 1036.82 357.795 1038.99 360.592C1039.56 363.581 1039.56 363.581 1038.99 366.697C1035.15 372.205 1030 373.466 1023.73 374.838C1019.88 375.26 1016.08 375.324 1012.22 375.283C1011.19 375.275 1010.17 375.267 1009.11 375.26C999.025 375.037 988.818 373.846 981.3 366.383C974.181 357.155 976.838 345.384 982.961 336.299Z" fill="black"/>
<path d="M977.937 286.312C980.036 283.323 980.036 283.323 983.025 281.225C987.093 280.582 989.137 280.534 992.564 282.878C994.609 285.867 995.161 287.777 995.235 291.4C993.977 294.314 992.863 295.972 990.338 297.887C987.183 298.788 985.145 298.42 982.007 297.505C977.51 294.428 977.105 291.582 977.937 286.312Z" fill="black"/>
<path d="M719.561 306.89C723.001 298.592 729.633 292.576 737.837 289.174C739.649 288.528 741.469 287.901 743.306 287.33C743.259 286.443 743.212 285.556 743.163 284.643C742.816 273.207 744.1 264.228 751.701 255.341C761.453 245.414 773.658 240.711 787.505 240.269C805.286 240.467 821.931 246.457 835.075 258.457C844.357 268.092 846.559 279.196 846.383 292.096C846.096 298.608 844.153 304.602 842.007 310.733C847.882 311.048 853.169 310.896 858.287 307.681C860.239 304.627 860.239 304.627 861.34 301.575C864.63 299.93 866.863 300.073 870.498 300.558C877.928 305.529 879.581 315.621 881.269 323.794C883.477 340.665 881.606 355.953 871.034 369.75C856.195 387.365 832.739 395.528 810.463 398.241C805.795 398.529 801.148 398.581 796.472 398.559C795.221 398.554 793.971 398.549 792.682 398.544C773.26 398.294 753.814 394.299 738.946 380.879C730.509 372.049 726.086 360.794 725.754 348.636C725.991 338.444 728.171 328.601 731.096 318.873C729.941 318.244 728.787 317.614 727.598 316.966C724.1 315.058 724.1 315.058 722.955 312.768C721.948 312.432 720.941 312.097 719.903 311.751C718.885 309.716 718.885 309.716 719.561 306.89ZM741.271 305.645C749.289 308.417 757.286 309.704 765.692 310.733C765.692 308.718 765.692 306.704 765.692 304.628C756.808 302.09 750.154 302.09 741.271 304.628C741.271 304.964 741.271 305.299 741.271 305.645ZM751.112 368.816C765.844 380.952 786.747 383.095 805.143 381.505C824.363 379.49 845.415 373.868 858.16 358.255C863.257 350.953 864.718 344.704 864.583 335.917C864.582 334.674 864.582 334.674 864.581 333.405C864.661 329.054 864.661 329.054 863.375 324.979C861.99 325.482 861.99 325.482 860.577 325.996C854.474 327.692 847.428 328.496 841.518 325.909C839.553 324.67 837.73 323.356 835.902 321.926C835.23 321.59 834.558 321.254 833.867 320.908C833.195 321.244 832.523 321.58 831.832 321.926C829.112 322.063 826.416 321.97 823.691 321.926C822.109 318.323 821.493 316.447 822.499 312.581C822.976 311.489 823.454 310.396 823.946 309.27C824.668 307.523 824.668 307.523 825.404 305.741C825.846 304.702 826.288 303.663 826.744 302.593C829.554 295.234 830.243 286.305 828.044 278.673C824.384 270.88 817.447 264.874 809.505 261.721C797.473 257.631 784.926 255.125 772.938 260.735C767.787 263.495 764.18 265.647 761.622 271.049C761.622 271.721 761.622 272.392 761.622 273.084C762.247 273.073 762.873 273.061 763.518 273.049C764.34 273.039 765.162 273.03 766.01 273.021C766.824 273.009 767.639 272.997 768.478 272.985C770.779 273.084 770.779 273.084 773.832 274.102C775.216 281.525 775.216 281.525 773.387 285.104C772.6 286.206 772.6 286.206 771.797 287.33C771.797 288.337 771.797 289.345 771.797 290.382C772.469 290.382 773.14 290.382 773.832 290.382C775.929 294.576 775.814 297.041 774.85 301.575C774.376 305.722 774.376 305.722 777.203 308.062C778.105 308.944 779.007 309.825 779.937 310.733C782.791 315.259 783.583 318.625 782.99 323.961C781.845 326.378 781.845 326.378 779.937 328.031C774.355 329.566 769.372 328.596 763.784 327.65C762.027 327.365 760.27 327.082 758.513 326.799C757.672 326.662 756.83 326.524 755.963 326.383C752.431 325.832 748.891 325.399 745.341 324.979C742.516 339.938 739.742 356.848 751.112 368.816Z" fill="black"/>
<path d="M751.112 368.816C765.844 380.952 786.747 383.095 805.143 381.505C824.363 379.49 845.415 373.868 858.16 358.255C863.257 350.953 864.718 344.704 864.583 335.917L864.581 333.405C864.661 329.054 864.661 329.054 863.375 324.979L860.577 325.996C854.474 327.692 847.428 328.496 841.518 325.909C839.553 324.67 837.73 323.356 835.902 321.926L833.867 320.908L831.832 321.926C829.112 322.063 826.416 321.97 823.691 321.926C822.109 318.323 821.493 316.447 822.499 312.581L823.946 309.27L825.404 305.741L826.744 302.593C829.554 295.234 830.243 286.305 828.044 278.673C824.384 270.88 817.447 264.874 809.505 261.721C797.473 257.631 784.926 255.125 772.938 260.735C767.787 263.495 764.18 265.647 761.622 271.049L761.622 273.084L763.518 273.049L766.01 273.021L768.478 272.985C770.779 273.084 770.779 273.084 773.832 274.102C775.216 281.525 775.216 281.525 773.387 285.104L771.797 287.33L771.797 290.382L773.832 290.382C775.929 294.576 775.814 297.041 774.85 301.575C774.376 305.722 774.376 305.722 777.203 308.062L779.937 310.733C782.791 315.259 783.583 318.625 782.99 323.961C781.845 326.378 781.845 326.378 779.937 328.031C774.355 329.566 769.372 328.596 763.784 327.65C762.027 327.365 760.27 327.082 758.513 326.799L755.963 326.383C752.431 325.832 748.891 325.399 745.341 324.979C742.516 339.938 739.742 356.848 751.112 368.816Z" fill="#48D7FF"/>
<path d="M741.271 305.645C749.289 308.417 757.286 309.704 765.692 310.733L765.692 304.628C756.808 302.09 750.154 302.09 741.271 304.628L741.271 305.645Z" fill="#F59713"/>
<path d="M784.961 336.299C788.621 332.528 791.809 331.835 796.981 331.465C797.983 331.389 798.985 331.313 800.018 331.235C800.778 331.185 801.539 331.135 802.323 331.084C802.959 332.992 802.959 332.992 803.34 335.154C802.669 335.825 801.997 336.497 801.305 337.189C800.776 339.209 800.251 341.23 799.787 343.266C799.27 345.329 799.27 345.329 798.126 348.127C796.989 350.64 796.989 350.64 797.235 354.487C804.66 357.219 812.825 358.25 820.702 357.094C824.202 356.594 827.539 356.315 831.068 356.204C832.081 356.166 833.093 356.128 834.137 356.089C837.677 356.64 838.823 357.795 840.989 360.592C841.562 363.581 841.562 363.581 840.989 366.697C837.147 372.205 831.996 373.466 825.726 374.838C821.877 375.26 818.085 375.324 814.215 375.283C813.191 375.275 812.166 375.267 811.111 375.26C801.025 375.037 790.818 373.846 783.3 366.383C776.181 357.155 778.838 345.384 784.961 336.299Z" fill="black"/>
<path d="M779.937 286.312C782.036 283.323 782.036 283.323 785.025 281.225C789.093 280.582 791.137 280.534 794.564 282.878C796.609 285.867 797.161 287.777 797.235 291.4C795.977 294.314 794.863 295.972 792.338 297.887C789.183 298.788 787.145 298.42 784.007 297.505C779.51 294.428 779.105 291.582 779.937 286.312Z" fill="black"/>
<path d="M918.561 108.89C922.001 100.592 928.633 94.5761 936.837 91.1741C938.649 90.5282 940.469 89.9012 942.306 89.3298C942.259 88.4432 942.212 87.5565 942.163 86.6429C941.816 75.207 943.1 66.2283 950.701 57.3411C960.453 47.4143 972.658 42.7108 986.505 42.2689C1004.29 42.4672 1020.93 48.4566 1034.07 60.4573C1043.36 70.0917 1045.56 81.1959 1045.38 94.0956C1045.1 100.608 1043.15 106.602 1041.01 112.733C1046.88 113.048 1052.17 112.896 1057.29 109.681C1059.24 106.627 1059.24 106.627 1060.34 103.575C1063.63 101.93 1065.86 102.073 1069.5 102.558C1076.93 107.529 1078.58 117.621 1080.27 125.794C1082.48 142.665 1080.61 157.953 1070.03 171.75C1055.19 189.365 1031.74 197.528 1009.46 200.241C1004.8 200.529 1000.15 200.581 995.472 200.559C994.221 200.554 992.971 200.549 991.682 200.544C972.26 200.294 952.814 196.299 937.946 182.879C929.509 174.049 925.086 162.794 924.754 150.636C924.991 140.444 927.171 130.601 930.096 120.873C928.941 120.244 927.787 119.614 926.598 118.966C923.1 117.058 923.1 117.058 921.955 114.768C920.948 114.432 919.941 114.097 918.903 113.751C917.885 111.716 917.885 111.716 918.561 108.89ZM940.271 107.645C948.289 110.417 956.286 111.704 964.692 112.733C964.692 110.718 964.692 108.704 964.692 106.628C955.808 104.09 949.154 104.09 940.271 106.628C940.271 106.964 940.271 107.299 940.271 107.645ZM950.112 170.816C964.844 182.952 985.747 185.095 1004.14 183.505C1023.36 181.49 1044.41 175.868 1057.16 160.255C1062.26 152.953 1063.72 146.704 1063.58 137.917C1063.58 136.674 1063.58 136.674 1063.58 135.405C1063.66 131.054 1063.66 131.054 1062.38 126.979C1060.99 127.482 1060.99 127.482 1059.58 127.996C1053.47 129.692 1046.43 130.496 1040.52 127.909C1038.55 126.67 1036.73 125.356 1034.9 123.926C1034.23 123.59 1033.56 123.254 1032.87 122.908C1032.2 123.244 1031.52 123.58 1030.83 123.926C1028.11 124.063 1025.42 123.97 1022.69 123.926C1021.11 120.323 1020.49 118.447 1021.5 114.581C1021.98 113.489 1022.45 112.396 1022.95 111.27C1023.67 109.523 1023.67 109.523 1024.4 107.741C1024.85 106.702 1025.29 105.663 1025.74 104.593C1028.55 97.2338 1029.24 88.3051 1027.04 80.6728C1023.38 72.8802 1016.45 66.8741 1008.51 63.7206C996.473 59.6312 983.926 57.1245 971.938 62.7348C966.787 65.4953 963.18 67.6473 960.622 73.0493C960.622 73.7209 960.622 74.3924 960.622 75.0844C961.247 75.0726 961.873 75.0607 962.518 75.0486C963.34 75.0394 964.162 75.0302 965.01 75.0208C965.824 75.009 966.639 74.9971 967.478 74.985C969.779 75.0844 969.779 75.0844 972.832 76.1019C974.216 83.5252 974.216 83.5252 972.387 87.104C971.6 88.2058 971.6 88.2058 970.797 89.3298C970.797 90.3372 970.797 91.3446 970.797 92.3824C971.469 92.3824 972.14 92.3824 972.832 92.3824C974.929 96.5764 974.814 99.0411 973.85 103.575C973.376 107.722 973.376 107.722 976.203 110.062C977.105 110.944 978.007 111.825 978.937 112.733C981.791 117.259 982.583 120.625 981.99 125.961C980.845 128.378 980.845 128.378 978.937 130.031C973.355 131.566 968.372 130.596 962.784 129.65C961.027 129.365 959.27 129.082 957.513 128.799C956.672 128.662 955.83 128.524 954.963 128.383C951.431 127.832 947.891 127.399 944.341 126.979C941.516 141.938 938.742 158.848 950.112 170.816Z" fill="black"/>
<path d="M950.112 170.816C964.844 182.952 985.747 185.095 1004.14 183.505C1023.36 181.49 1044.41 175.868 1057.16 160.255C1062.26 152.953 1063.72 146.704 1063.58 137.917L1063.58 135.405C1063.66 131.054 1063.66 131.054 1062.38 126.979L1059.58 127.996C1053.47 129.692 1046.43 130.496 1040.52 127.909C1038.55 126.67 1036.73 125.356 1034.9 123.926L1032.87 122.908L1030.83 123.926C1028.11 124.063 1025.42 123.97 1022.69 123.926C1021.11 120.323 1020.49 118.447 1021.5 114.581L1022.95 111.27L1024.4 107.741L1025.74 104.593C1028.55 97.2338 1029.24 88.3051 1027.04 80.6728C1023.38 72.8802 1016.45 66.8741 1008.51 63.7206C996.473 59.6312 983.926 57.1245 971.938 62.7348C966.787 65.4953 963.18 67.6473 960.622 73.0493L960.622 75.0844L962.518 75.0486L965.01 75.0208L967.478 74.985C969.779 75.0844 969.779 75.0844 972.832 76.1019C974.216 83.5252 974.216 83.5252 972.387 87.104L970.797 89.3298L970.797 92.3824L972.832 92.3824C974.929 96.5764 974.814 99.0411 973.85 103.575C973.376 107.722 973.376 107.722 976.203 110.062L978.937 112.733C981.791 117.259 982.583 120.625 981.99 125.961C980.845 128.378 980.845 128.378 978.937 130.031C973.355 131.566 968.372 130.596 962.784 129.65C961.027 129.365 959.27 129.082 957.513 128.799L954.963 128.383C951.431 127.832 947.891 127.399 944.341 126.979C941.516 141.938 938.742 158.848 950.112 170.816Z" fill="#FFEA48"/>
<path d="M940.271 107.645C948.289 110.417 956.286 111.704 964.692 112.733L964.692 106.628C955.808 104.09 949.154 104.09 940.271 106.628L940.271 107.645Z" fill="#F59713"/>
<path d="M983.961 138.299C987.621 134.528 990.809 133.835 995.981 133.465C996.983 133.389 997.985 133.313 999.018 133.235C999.778 133.185 1000.54 133.135 1001.32 133.084C1001.96 134.992 1001.96 134.992 1002.34 137.154C1001.67 137.825 1001 138.497 1000.31 139.189C999.776 141.209 999.251 143.23 998.787 145.266C998.27 147.329 998.27 147.329 997.126 150.127C995.989 152.64 995.989 152.64 996.235 156.487C1003.66 159.219 1011.83 160.25 1019.7 159.094C1023.2 158.594 1026.54 158.315 1030.07 158.204C1031.08 158.166 1032.09 158.128 1033.14 158.089C1036.68 158.64 1037.82 159.795 1039.99 162.592C1040.56 165.581 1040.56 165.581 1039.99 168.697C1036.15 174.205 1031 175.466 1024.73 176.838C1020.88 177.26 1017.08 177.324 1013.22 177.283C1012.19 177.275 1011.17 177.267 1010.11 177.26C1000.03 177.037 989.818 175.846 982.3 168.383C975.181 159.155 977.838 147.384 983.961 138.299Z" fill="black"/>
<path d="M978.937 88.3124C981.036 85.3234 981.036 85.3234 984.025 83.2247C988.093 82.5824 990.137 82.5336 993.564 84.8782C995.609 87.8675 996.161 89.7773 996.235 93.4C994.977 96.3136 993.863 97.9717 991.338 99.8868C988.183 100.788 986.145 100.42 983.007 99.5053C978.51 96.428 978.105 93.582 978.937 88.3124Z" fill="black"/>
<path d="M368.373 244.378C368.67 241.872 368.67 241.872 368.973 239.315C395.825 227.925 436.369 232.803 464.96 232.283C469.439 232.2 473.917 232.109 478.396 232.017C492.534 231.728 506.672 231.474 520.811 231.242C521.866 231.225 522.92 231.207 524.007 231.189C530.158 231.088 536.309 230.993 542.461 230.91C544.333 230.884 546.206 230.857 548.079 230.827C579.71 230.333 579.71 230.333 586.4 236.053C587.533 238.471 587.533 238.471 586.797 241.038C581.851 246.103 578.498 247.445 571.526 247.684C570.664 247.733 569.802 247.781 568.914 247.831C566.036 247.978 563.159 248.077 560.278 248.164C559.282 248.196 558.285 248.228 557.258 248.261C549.251 248.498 541.244 248.6 533.235 248.686C531.273 248.71 529.311 248.734 527.35 248.758C505.463 249.021 483.575 249.13 461.687 249.178C459.272 249.185 456.857 249.193 454.442 249.203C438.042 249.263 421.676 249.149 405.29 248.411C403.994 248.353 402.698 248.295 401.362 248.235C374.632 246.909 374.632 246.909 368.373 244.378Z" fill="black"/>
<path d="M477.011 299.307C478.62 292.295 484.222 288.681 490.087 284.967C511.737 272.077 537.077 265.323 561.03 258.117C569.856 255.441 578.55 252.684 587 248.964C587.651 248.68 588.302 248.395 588.973 248.102C593.058 246.222 596.579 244.119 599.835 241.003C599.988 236.996 599.988 236.996 597.444 235.241C593.29 232.904 589.036 230.979 584.656 229.107C583.824 228.738 582.992 228.369 582.135 227.989C574.662 224.776 567.132 223.021 559.073 221.99C557.777 221.824 556.481 221.658 555.146 221.487C554.712 220.198 554.278 218.908 553.831 217.579C557.222 215.698 559.793 214.864 563.662 214.708C565.087 214.648 565.087 214.648 566.541 214.587C568.043 214.548 568.043 214.548 569.575 214.508C570.605 214.479 571.636 214.449 572.698 214.419C586.473 214.141 598.908 215.286 610.426 223.608C615.878 229.24 618.953 233.488 618.934 241.489C617.119 249.615 611.984 254.693 605.368 259.368C591.351 267.995 575.242 272.522 559.61 277.329C557.248 278.057 554.886 278.785 552.524 279.514C550.91 280.012 549.296 280.508 547.681 281.004C533.137 285.486 519.069 290.883 505.087 296.887C496.138 300.662 488.247 303.175 478.358 302.836C477.282 301.919 477.282 301.919 477.011 299.307Z" fill="black"/>
<path d="M2016 270.996C2016.3 268.489 2016.3 268.489 2016.6 265.932C2043.45 254.542 2084 259.421 2112.59 258.901C2117.07 258.817 2121.54 258.726 2126.02 258.634C2140.16 258.345 2154.3 258.091 2168.44 257.86C2169.49 257.842 2170.55 257.825 2171.63 257.806C2177.78 257.705 2183.94 257.611 2190.09 257.528C2191.96 257.502 2193.83 257.474 2195.71 257.444C2227.34 256.95 2227.34 256.95 2234.03 262.671C2235.16 265.089 2235.16 265.089 2234.42 267.655C2229.48 272.721 2226.13 274.063 2219.15 274.302C2218.29 274.35 2217.43 274.399 2216.54 274.448C2213.66 274.595 2210.79 274.695 2207.91 274.781C2206.91 274.813 2205.91 274.845 2204.88 274.878C2196.88 275.115 2188.87 275.218 2180.86 275.304C2178.9 275.328 2176.94 275.352 2174.98 275.376C2153.09 275.639 2131.2 275.747 2109.31 275.796C2106.9 275.802 2104.48 275.811 2102.07 275.82C2085.67 275.881 2069.3 275.766 2052.92 275.029C2051.62 274.97 2050.32 274.912 2048.99 274.852C2022.26 273.526 2022.26 273.526 2016 270.996Z" fill="black"/>
<path d="M2124.64 325.924C2126.25 318.913 2131.85 315.299 2137.71 311.584C2159.36 298.695 2184.7 291.941 2208.66 284.735C2217.48 282.058 2226.18 279.302 2234.63 275.582C2235.28 275.297 2235.93 275.013 2236.6 274.719C2240.68 272.839 2244.21 270.736 2247.46 267.62C2247.61 263.613 2247.61 263.613 2245.07 261.858C2240.92 259.522 2236.66 257.597 2232.28 255.725C2231.45 255.356 2230.62 254.987 2229.76 254.607C2222.29 251.393 2214.76 249.638 2206.7 248.607C2205.4 248.441 2204.11 248.276 2202.77 248.105C2202.34 246.815 2201.91 245.525 2201.46 244.197C2204.85 242.315 2207.42 241.481 2211.29 241.326C2212.71 241.266 2212.71 241.266 2214.17 241.205C2215.67 241.166 2215.67 241.166 2217.2 241.125C2218.23 241.096 2219.26 241.067 2220.32 241.037C2234.1 240.758 2246.53 241.903 2258.05 250.225C2263.51 255.857 2266.58 260.105 2266.56 268.107C2264.75 276.232 2259.61 281.311 2253 285.985C2238.98 294.612 2222.87 299.139 2207.24 303.946C2204.87 304.674 2202.51 305.403 2200.15 306.131C2198.54 306.629 2196.92 307.126 2195.31 307.621C2180.76 312.103 2166.7 317.5 2152.71 323.504C2143.76 327.279 2135.87 329.793 2125.98 329.454C2124.91 328.536 2124.91 328.536 2124.64 325.924Z" fill="black"/>
<path d="M1129.38 126.869C1130.82 124.931 1130.82 124.931 1133.52 124.327C1165.46 120.49 1199.05 125.892 1230.82 128.931C1231.75 129.021 1232.69 129.11 1233.65 129.202C1241.36 129.94 1249.07 130.708 1256.77 131.502C1273.44 133.218 1290.12 134.82 1306.8 136.438C1310.95 136.84 1315.1 137.243 1319.25 137.646C1327.11 138.408 1334.96 139.17 1342.82 139.931C1342.82 138.281 1342.82 136.631 1342.82 134.931C1345.73 133.472 1348.31 133.761 1351.57 133.744C1352.78 133.73 1353.99 133.716 1355.24 133.701C1368.63 134.151 1381.41 137.702 1394.33 140.926C1413.85 145.767 1433.1 149.549 1453.12 151.499C1453.92 151.579 1454.73 151.659 1455.55 151.742C1457.02 151.885 1458.49 152.017 1459.96 152.136C1465.95 152.697 1471.45 154.157 1476.32 157.806C1477.82 159.931 1477.82 159.931 1478.25 162.494C1477.74 165.354 1477.13 166.22 1474.82 167.931C1471.98 168.876 1470.22 169.06 1467.28 169.064C1465.94 169.066 1465.94 169.066 1464.58 169.068C1463.64 169.064 1462.71 169.06 1461.75 169.056C1460.85 169.06 1459.95 169.064 1459.01 169.068C1454.7 169.062 1450.48 168.937 1446.2 168.424C1432.7 166.958 1418.99 168.053 1405.5 169.119C1404.68 169.182 1403.85 169.245 1403 169.311C1383.76 170.807 1364.58 173.24 1345.55 176.489C1342.73 176.946 1340.05 177.099 1337.19 177.119C1336.27 177.133 1335.35 177.147 1334.4 177.162C1331.66 176.918 1330.08 176.482 1327.82 174.931C1326.63 171.681 1326.63 171.681 1326.82 167.931C1330.82 162.09 1337.29 160.511 1343.82 158.931C1335.11 157.353 1326.42 156.292 1317.62 155.451C1316.24 155.316 1314.87 155.182 1313.49 155.046C1310.57 154.758 1307.64 154.473 1304.71 154.189C1296.86 153.427 1289.01 152.648 1281.16 151.869C1280.36 151.789 1279.56 151.71 1278.73 151.628C1252.5 149.024 1226.3 146.181 1200.1 143.293C1197.07 142.96 1194.04 142.63 1191.01 142.302C1158.95 138.828 1158.95 138.828 1143.82 134.931C1143.12 134.756 1142.42 134.58 1141.71 134.399C1133.44 132.283 1133.44 132.283 1129.82 130.931C1128.82 128.931 1128.82 128.931 1129.38 126.869Z" fill="black"/>
<path d="M2753.38 226.869C2754.82 224.931 2754.82 224.931 2757.52 224.327C2789.46 220.49 2823.05 225.892 2854.82 228.931C2855.75 229.021 2856.69 229.11 2857.65 229.202C2865.36 229.94 2873.07 230.708 2880.77 231.502C2897.44 233.218 2914.12 234.82 2930.8 236.438C2934.95 236.84 2939.1 237.243 2943.25 237.646C2951.11 238.408 2958.96 239.17 2966.82 239.931C2966.82 238.281 2966.82 236.631 2966.82 234.931C2969.73 233.472 2972.31 233.761 2975.57 233.744C2976.78 233.73 2977.99 233.716 2979.24 233.701C2992.63 234.151 3005.41 237.702 3018.33 240.926C3037.85 245.767 3057.1 249.549 3077.12 251.499C3077.92 251.579 3078.73 251.659 3079.55 251.742C3081.02 251.885 3082.49 252.017 3083.96 252.136C3089.95 252.697 3095.45 254.157 3100.32 257.806C3101.82 259.931 3101.82 259.931 3102.25 262.494C3101.74 265.354 3101.13 266.22 3098.82 267.931C3095.98 268.876 3094.22 269.06 3091.28 269.064C3089.94 269.066 3089.94 269.066 3088.58 269.068C3087.64 269.064 3086.71 269.06 3085.75 269.056C3084.85 269.06 3083.95 269.064 3083.01 269.068C3078.7 269.062 3074.48 268.937 3070.2 268.424C3056.7 266.958 3042.99 268.053 3029.5 269.119C3028.68 269.182 3027.85 269.245 3027 269.311C3007.76 270.807 2988.58 273.24 2969.55 276.489C2966.73 276.946 2964.05 277.099 2961.19 277.119C2960.27 277.133 2959.35 277.147 2958.4 277.162C2955.66 276.918 2954.08 276.482 2951.82 274.931C2950.63 271.681 2950.63 271.681 2950.82 267.931C2954.82 262.09 2961.29 260.511 2967.82 258.931C2959.11 257.353 2950.42 256.292 2941.62 255.451C2940.24 255.316 2938.87 255.182 2937.49 255.046C2934.57 254.758 2931.64 254.473 2928.71 254.189C2920.86 253.427 2913.01 252.648 2905.16 251.869C2904.36 251.789 2903.56 251.71 2902.73 251.628C2876.5 249.024 2850.3 246.181 2824.1 243.293C2821.07 242.96 2818.04 242.63 2815.01 242.302C2782.95 238.828 2782.95 238.828 2767.82 234.931C2767.12 234.756 2766.42 234.58 2765.71 234.399C2757.44 232.283 2757.44 232.283 2753.82 230.931C2752.82 228.931 2752.82 228.931 2753.38 226.869Z" fill="black"/>
<path d="M1558.99 337.629C1560.96 336.208 1560.96 336.208 1562.75 335.199C1556.68 278.25 1550.52 221.365 1540.57 164.937C1537.66 148.36 1535.35 131.688 1532.95 115.032C1531.39 104.22 1529.83 93.4263 1527.85 82.6831C1527.04 78.0171 1526.52 73.33 1526.09 68.6163C1527.88 67.7882 1527.88 67.7882 1529.96 67.1808C1532.67 69.356 1532.71 70.3821 1533.45 73.7292C1533.7 74.7818 1533.94 75.8343 1534.2 76.9188C1534.47 78.1057 1534.74 79.2927 1535.02 80.5156C1537.41 90.5918 1540.05 100.559 1542.97 110.493C1543.29 111.562 1543.6 112.631 1543.93 113.732C1544.25 114.817 1544.57 115.903 1544.89 117.021C1551.67 140.055 1557.32 162.783 1561.31 186.448C1561.51 187.592 1561.51 187.592 1561.71 188.759C1566.61 217.622 1570.29 246.539 1573.43 275.644C1573.9 279.962 1574.38 284.28 1574.86 288.597C1575.33 292.8 1575.79 297.003 1576.25 301.207C1576.46 303.189 1576.68 305.172 1576.9 307.154C1577.2 309.895 1577.5 312.637 1577.79 315.378C1577.88 316.175 1577.97 316.971 1578.06 317.792C1578.58 322.715 1578.69 327.489 1578.54 332.439C1579.4 332.418 1579.4 332.418 1580.28 332.397C1586.25 332.289 1592.18 332.439 1598.15 332.684C1613.46 333.304 1628.62 333.011 1643.91 332.22C1642.67 332.175 1641.43 332.13 1640.15 332.084C1638.5 332.012 1636.85 331.94 1635.2 331.868C1634.38 331.84 1633.56 331.812 1632.72 331.783C1626.95 331.514 1621.7 331.057 1617.29 326.939C1616.86 326.386 1616.42 325.832 1615.97 325.262C1616.85 322.682 1617.56 321.013 1619.29 318.857C1636.14 311.115 1660.76 314.194 1679.12 313.883C1683.26 313.811 1687.39 313.726 1691.52 313.643C1698.49 313.504 1705.45 313.373 1712.41 313.248C1722.04 313.075 1731.66 312.889 1741.28 312.7C1757.16 312.388 1773.03 312.096 1788.91 311.819C1797.6 311.667 1806.3 311.502 1814.99 311.323C1819.89 311.224 1824.79 311.132 1829.69 311.043C1831.9 311.001 1834.1 310.955 1836.3 310.906C1839.27 310.84 1842.24 310.786 1845.21 310.736C1846.04 310.714 1846.88 310.692 1847.74 310.67C1854.53 310.577 1861.93 310.788 1867.87 314.323C1870.76 317.628 1870.76 317.628 1870.96 320.08C1868.34 324.273 1866.41 325.963 1861.68 327.147C1853.93 328.382 1846.12 328.707 1838.28 328.866C1837.25 328.892 1836.22 328.917 1835.16 328.942C1831.92 329.02 1828.68 329.091 1825.43 329.161C1823.22 329.213 1821 329.265 1818.78 329.318C1813.39 329.446 1808 329.568 1802.6 329.685C1803.49 329.68 1804.38 329.676 1805.3 329.671C1813.77 329.627 1822.25 329.588 1830.72 329.554C1835.08 329.536 1839.43 329.517 1843.78 329.493C1880.31 329.298 1880.31 329.298 1896.25 330.35C1898.27 330.463 1900.3 330.574 1902.32 330.682C1902.37 329.815 1902.41 328.947 1902.46 328.054C1906.25 256.571 1920.24 184.833 1946.56 118.123C1947.03 116.934 1947.49 115.745 1947.97 114.519C1948.41 113.421 1948.85 112.323 1949.31 111.192C1949.7 110.217 1950.09 109.241 1950.49 108.237C1951.91 105.658 1952.89 104.613 1955.56 103.415C1956.25 103.671 1956.94 103.926 1957.66 104.189C1958.65 109.579 1957.73 113.846 1956.47 119.067C1956.26 119.937 1956.06 120.807 1955.85 121.704C1955.41 123.58 1954.97 125.456 1954.52 127.331C1953.81 130.313 1953.12 133.298 1952.42 136.283C1951.7 139.36 1950.99 142.436 1950.26 145.512C1948 155.194 1945.81 164.893 1943.66 174.602C1943.48 175.399 1943.3 176.197 1943.12 177.018C1942.06 181.801 1941.01 186.586 1939.95 191.371C1939.43 193.761 1938.9 196.15 1938.37 198.539C1931.05 231.673 1925.33 264.533 1922.27 298.346C1922.11 300.127 1921.94 301.909 1921.78 303.69C1920.76 314.739 1919.9 325.8 1919.11 336.867C1919.75 337.065 1920.4 337.263 1921.06 337.467C1923.3 338.413 1923.3 338.413 1925.62 341.174C1926.52 345.35 1926.36 348.702 1925.46 352.813C1924.38 358.467 1924.37 363.855 1924.57 369.589C1924.6 371.029 1924.6 371.029 1924.64 372.497C1924.7 374.83 1924.77 377.161 1924.85 379.493C1926.89 379.931 1928.93 380.368 1931.03 380.819C1931.18 382.131 1931.32 383.443 1931.47 384.794C1930.86 385.045 1930.25 385.296 1929.61 385.555C1928.82 385.896 1928.03 386.237 1927.21 386.589C1926.42 386.922 1925.63 387.255 1924.81 387.598C1924.17 387.985 1923.52 388.371 1922.86 388.77C1921.85 393.471 1924.13 397.322 1925.92 401.636C1927.45 405.476 1928.3 408.3 1927.5 412.402C1924.38 414.127 1922.21 415.302 1918.62 414.956C1914.33 413.697 1911.92 412.041 1909.55 408.233C1906.6 402.399 1904.59 396.369 1903.87 389.873C1903.09 389.976 1902.32 390.079 1901.53 390.184C1893.35 391.192 1885.38 391.481 1877.15 391.39C1875.78 391.381 1874.4 391.372 1873.03 391.364C1869.24 391.339 1865.45 391.304 1861.66 391.268C1857.54 391.23 1853.42 391.201 1849.3 391.171C1840.7 391.106 1832.1 391.031 1823.5 390.954C1814.99 390.878 1806.49 390.805 1797.99 390.734C1763.28 390.441 1728.57 390.137 1693.86 389.815C1689.09 389.77 1684.31 389.727 1679.54 389.685C1646.83 389.391 1646.83 389.391 1632.67 388.995C1631.79 388.971 1630.91 388.947 1630.01 388.922C1615.67 388.5 1601.82 387.192 1587.73 384.402C1584.91 383.953 1582.05 383.835 1579.2 383.679C1577.89 389.801 1576.57 395.924 1575.22 402.232C1574.57 402.304 1573.91 402.377 1573.23 402.452C1570.11 391.937 1567.49 381.628 1566.24 370.707C1565.53 365.343 1564.22 362.589 1560.32 358.611C1556.27 351.561 1555.89 344.973 1558.99 337.629ZM1579.42 376.612C1580.49 376.502 1581.55 376.393 1582.65 376.281C1604.88 374.039 1626.91 372.475 1649.26 372.666C1650.08 372.673 1650.9 372.679 1651.75 372.686C1653.47 372.7 1655.19 372.714 1656.91 372.728C1659.39 372.748 1661.87 372.767 1664.34 372.786C1669.34 372.824 1674.33 372.864 1679.32 372.903C1680.22 372.91 1681.13 372.917 1682.06 372.925C1711.32 373.155 1740.58 373.402 1769.84 373.649C1780.42 373.739 1791 373.828 1801.58 373.916C1809.14 373.978 1816.7 374.042 1824.25 374.107C1828.72 374.145 1833.19 374.182 1837.66 374.219C1871.16 374.494 1871.16 374.494 1886.03 374.825C1891.42 374.944 1896.81 374.982 1902.21 374.965C1903.19 372.304 1903 370.234 1902.91 367.396C1902.88 366.316 1902.85 365.237 1902.82 364.125C1902.78 362.994 1902.74 361.864 1902.7 360.699C1902.67 359.56 1902.63 358.421 1902.59 357.248C1902.51 354.429 1902.42 351.611 1902.32 348.793C1890.78 346.94 1879.58 346.249 1867.9 346.265C1866.09 346.259 1864.28 346.253 1862.47 346.247C1856.21 346.23 1849.94 346.24 1843.68 346.251C1841.26 346.254 1838.84 346.256 1836.42 346.259C1821.36 346.279 1806.29 346.335 1791.23 346.416C1789.78 346.424 1788.33 346.431 1786.88 346.439C1786.16 346.443 1785.44 346.447 1784.7 346.451C1779.67 346.477 1774.64 346.498 1769.6 346.515C1730.48 346.651 1691.42 347.419 1652.32 348.876C1646.38 349.097 1640.44 349.3 1634.5 349.491C1633.73 349.515 1632.96 349.54 1632.16 349.566C1617 350.045 1601.95 349.921 1586.81 348.946C1584.29 348.891 1581.91 349.113 1579.42 349.445C1579.35 353.414 1579.29 357.383 1579.23 361.351C1579.21 362.48 1579.2 363.608 1579.18 364.771C1579.15 366.393 1579.15 366.393 1579.13 368.048C1579.11 369.046 1579.1 370.043 1579.08 371.071C1579.04 373.706 1579.04 373.706 1579.42 376.612ZM1652.97 332.22C1654.85 331.006 1654.85 331.006 1654.85 331.006L1652.97 332.22Z" fill="black"/>
<path d="M1569.16 75.9062C1569.37 73.808 1569.37 73.808 1569.71 71.8202C1586.75 68.6191 1603.79 66.2212 1621.16 66.2705C1622.95 66.2697 1622.95 66.2697 1624.78 66.2689C1629.02 66.2712 1633.27 66.2845 1637.52 66.3007C1638.31 66.3035 1639.1 66.3063 1639.92 66.3091C1655.31 66.3637 1670.7 66.4621 1686.09 66.5645C1687.9 66.5764 1687.9 66.5764 1689.75 66.5885C1745.9 66.957 1802.04 67.4276 1858.19 67.9131C1866.6 67.9857 1875.01 68.0559 1883.42 68.1252C1893.8 68.2108 1904.18 68.2997 1914.55 68.3929C1919.94 68.4411 1925.32 68.4879 1930.71 68.5309C1935.7 68.5708 1940.69 68.615 1945.68 68.6625C1947.5 68.6791 1949.32 68.6941 1951.13 68.7074C1973.87 68.8763 1973.87 68.8763 1978.72 71.3497C1981.16 74.4529 1981.36 76.5284 1981.18 80.4465C1979.4 83.3865 1979.4 83.3865 1976.76 85.968C1973.51 86.6781 1973.51 86.6781 1969.7 86.7028C1969 86.7142 1968.3 86.7256 1967.58 86.7373C1965.3 86.7662 1963.03 86.7551 1960.75 86.7405C1959.24 86.7473 1957.72 86.7556 1956.21 86.7652C1951.22 86.7829 1946.23 86.7345 1941.24 86.6844C1939.34 86.6686 1937.44 86.6533 1935.54 86.6383C1930.43 86.5968 1925.32 86.5497 1920.21 86.5013C1914.85 86.4514 1909.49 86.4063 1904.12 86.3605C1895.13 86.2831 1886.14 86.2021 1877.15 86.1189C1866.76 86.0226 1856.36 85.9314 1845.97 85.843C1835.95 85.7578 1825.93 85.6696 1815.91 85.5798C1811.65 85.5417 1807.39 85.5044 1803.14 85.468C1798.13 85.4249 1793.13 85.3792 1788.13 85.3316C1786.29 85.3145 1784.45 85.2982 1782.62 85.2829C1780.11 85.262 1777.61 85.2378 1775.11 85.2128C1774.38 85.2074 1773.65 85.202 1772.9 85.1965C1769.66 85.1609 1766.5 85.0748 1763.3 84.5258C1763.64 85.6754 1763.99 86.8251 1764.34 88.0096C1764.8 89.5263 1765.25 91.043 1765.7 92.5598C1765.93 93.3165 1766.15 94.0733 1766.39 94.853C1766.61 95.5875 1766.83 96.3221 1767.05 97.0789C1767.25 97.752 1767.45 98.4252 1767.66 99.1187C1768.16 101.091 1768.16 101.091 1768.6 105.066C1769.38 105.02 1770.15 104.973 1770.96 104.925C1783.95 104.246 1796.93 104.296 1809.94 104.298C1812.49 104.297 1815.04 104.296 1817.58 104.295C1822.91 104.294 1828.23 104.296 1833.56 104.3C1839.66 104.304 1845.76 104.298 1851.86 104.288C1857.79 104.279 1863.72 104.28 1869.66 104.285C1872.15 104.286 1874.65 104.284 1877.14 104.278C1888.54 104.255 1899.92 104.272 1911.28 105.264C1912.05 105.325 1912.82 105.386 1913.6 105.449C1919.4 106.043 1923.75 107.848 1928.28 111.476C1928.43 112.788 1928.57 114.1 1928.72 115.452C1918.37 123.25 1905.07 122.198 1892.66 122.19C1891.37 122.195 1890.09 122.2 1888.77 122.205C1885.3 122.218 1881.84 122.223 1878.37 122.225C1874.72 122.23 1871.08 122.243 1867.43 122.256C1852.96 122.301 1838.48 122.3 1824.01 122.279C1821.8 122.276 1819.59 122.274 1817.39 122.271C1815.95 122.27 1814.51 122.268 1813.06 122.266C1812.01 122.265 1812.01 122.265 1810.93 122.264C1806.79 122.258 1802.65 122.247 1798.5 122.231C1795.32 122.22 1792.14 122.215 1788.95 122.209C1787.82 122.203 1786.69 122.196 1785.53 122.19C1775.01 121.538 1775.01 121.538 1765.79 124.923C1765.3 125.917 1765.3 125.917 1764.8 126.932C1762.61 130.702 1760.86 132.669 1756.78 134.551C1753.8 135.101 1750.86 135.391 1747.83 135.545C1747.87 136.453 1747.91 137.362 1747.95 138.299C1747.5 141.618 1747.5 141.618 1745.66 144.276C1742.12 146.742 1740.11 146.605 1735.91 145.925C1733.69 144.583 1732.78 143.564 1731.38 141.397C1731.12 139.708 1730.92 138.011 1730.75 136.31C1730.66 135.405 1730.57 134.499 1730.48 133.566C1730.38 132.523 1730.38 132.523 1730.28 131.458C1729.63 131.202 1728.98 130.946 1728.32 130.682C1727.46 130.337 1726.61 129.991 1725.73 129.636C1724.89 129.298 1724.05 128.959 1723.18 128.611C1720.91 127.544 1719.23 126.608 1717.47 124.832C1717.36 123.848 1717.25 122.864 1717.14 121.85C1715.19 121.9 1715.19 121.9 1713.2 121.951C1699.7 122.271 1686.21 122.33 1672.71 122.208C1669.42 122.18 1666.14 122.162 1662.85 122.144C1633.89 121.933 1633.89 121.933 1620.89 118.439C1615.93 117.243 1610.88 116.693 1605.82 116.104C1605.64 114.464 1605.46 112.825 1605.27 111.135C1608.46 109.76 1611.4 109.376 1614.85 109.065C1618.92 108.652 1622.7 107.994 1626.67 106.974C1638.48 104.449 1650.69 104.559 1662.7 104.504C1664.45 104.49 1666.2 104.476 1667.95 104.462C1684.71 104.34 1701.48 104.44 1718.24 104.623C1718.25 103.563 1718.25 103.563 1718.27 102.482C1718.3 101.524 1718.34 100.565 1718.37 99.5776C1718.4 98.6411 1718.42 97.7045 1718.45 96.7396C1719.2 92.3824 1721.04 88.8503 1723.1 84.9663C1722.39 84.9572 1721.69 84.948 1720.96 84.9386C1660.94 84.1591 1660.94 84.1591 1635.35 83.7029C1633.45 83.6696 1631.56 83.6376 1629.67 83.607C1597.65 83.0845 1597.65 83.0845 1584.47 80.1789C1583.66 80.0116 1582.85 79.8442 1582.02 79.6718C1570.98 77.3616 1570.98 77.3616 1569.16 75.9062Z" fill="black"/>
<path d="M1784.38 213.096C1784.1 219.608 1782.15 225.602 1780.01 231.733C1785.88 232.048 1791.17 231.896 1796.29 228.681C1798.24 225.627 1798.24 225.627 1799.34 222.575C1802.63 220.93 1804.86 221.073 1808.5 221.558C1815.93 226.529 1817.58 236.621 1819.27 244.794C1821.48 261.665 1819.61 276.953 1809.03 290.75C1794.19 308.365 1770.74 316.528 1748.46 319.241C1743.8 319.529 1739.15 319.581 1734.47 319.559L1730.68 319.544C1711.26 319.294 1691.81 315.299 1676.95 301.879C1668.51 293.049 1664.09 281.794 1663.75 269.636C1663.99 259.444 1666.17 249.601 1669.1 239.873L1665.6 237.966C1662.1 236.058 1662.1 236.058 1660.96 233.768L1657.9 232.751C1656.89 230.716 1656.89 230.716 1657.56 227.89C1660.62 220.499 1666.22 214.918 1673.21 211.382L1709.8 211.382L1711.83 211.382L1732.09 211.882L1734.47 211.882L1745.09 211.882L1746.59 211.882L1784.39 211.382C1784.39 211.95 1784.39 212.521 1784.38 213.096Z" fill="#737373"/>
<path d="M1734.47 211.882L1745.09 211.882L1746.59 211.882C1746 209.885 1742.09 201.269 1743.59 197.769L1743.59 167.269C1744.57 161.802 1745.09 161.269 1745.09 152.269L1743.59 144.769L1736.09 145.269C1736.09 146.769 1735.46 163.92 1736.09 174.269C1736.09 174.269 1734.81 183.387 1734.47 189.269C1734.08 196.092 1734.47 206.769 1734.47 206.769C1735.09 210.769 1733.02 209.885 1732.09 211.882L1734.47 211.882Z" fill="#737373"/>
<path d="M2348.47 272.621C2351.91 264.323 2358.54 258.307 2366.75 254.905C2368.56 254.259 2370.38 253.632 2372.22 253.061C2372.17 252.174 2372.12 251.288 2372.07 250.374C2371.73 238.938 2373.01 229.959 2380.61 221.072C2390.36 211.145 2402.57 206.442 2416.41 206C2434.2 206.198 2450.84 212.188 2463.98 224.188C2473.27 233.823 2475.47 244.927 2475.29 257.827C2475.01 264.339 2473.06 270.333 2470.92 276.464C2476.79 276.779 2482.08 276.627 2487.2 273.412C2489.15 270.358 2489.15 270.358 2490.25 267.306C2493.54 265.661 2495.77 265.804 2499.41 266.289C2506.84 271.26 2508.49 281.352 2510.18 289.525C2512.39 306.396 2510.52 321.684 2499.94 335.481C2485.1 353.096 2461.65 361.259 2439.37 363.972C2434.7 364.26 2430.06 364.312 2425.38 364.29C2424.13 364.285 2422.88 364.28 2421.59 364.275C2402.17 364.025 2382.72 360.03 2367.86 346.61C2359.42 337.78 2355 326.525 2354.66 314.367C2354.9 304.175 2357.08 294.332 2360.01 284.604C2358.85 283.975 2357.7 283.345 2356.51 282.697C2353.01 280.789 2353.01 280.789 2351.86 278.499C2350.86 278.163 2349.85 277.828 2348.81 277.482C2347.79 275.447 2347.79 275.447 2348.47 272.621ZM2370.18 271.377C2378.2 274.148 2386.2 275.435 2394.6 276.464C2394.6 274.449 2394.6 272.435 2394.6 270.359C2385.72 267.821 2379.06 267.821 2370.18 270.359C2370.18 270.695 2370.18 271.031 2370.18 271.377ZM2380.02 334.547C2394.75 346.684 2415.66 348.826 2434.05 347.236C2453.27 345.221 2474.32 339.599 2487.07 323.986C2492.17 316.684 2493.63 310.435 2493.49 301.648C2493.49 300.405 2493.49 300.405 2493.49 299.136C2493.57 294.785 2493.57 294.785 2492.28 290.71C2490.9 291.213 2490.9 291.213 2489.49 291.727C2483.38 293.423 2476.34 294.227 2470.43 291.64C2468.46 290.401 2466.64 289.087 2464.81 287.657C2464.14 287.321 2463.47 286.986 2462.78 286.64C2462.1 286.975 2461.43 287.311 2460.74 287.657C2458.5 287.77 2456.28 287.727 2454.04 287.683C2453.56 287.674 2453.08 287.665 2452.6 287.657C2451.02 284.054 2450.4 282.178 2451.41 278.312C2451.89 277.22 2452.36 276.127 2452.86 275.001C2453.58 273.254 2453.58 273.254 2454.31 271.472C2454.76 270.433 2455.2 269.394 2455.65 268.324C2457.97 262.248 2458.85 255.103 2457.84 248.5C2457.63 247.105 2457.34 245.735 2456.95 244.404C2453.29 236.611 2446.36 230.605 2438.42 227.452C2426.38 223.362 2413.84 220.856 2401.85 226.466C2396.7 229.226 2393.09 231.378 2390.53 236.78C2390.53 237.452 2390.53 238.124 2390.53 238.815C2391.16 238.804 2391.78 238.792 2392.43 238.78C2393.25 238.77 2394.07 238.761 2394.92 238.752C2395.73 238.74 2396.55 238.728 2397.39 238.716C2399.69 238.815 2399.69 238.815 2402.74 239.833C2402.97 241.081 2403.17 242.119 2403.32 243C2404.07 247.357 2403.82 247.858 2402.3 250.835C2401.51 251.937 2401.51 251.937 2400.71 253.061C2400.71 254.068 2400.71 255.076 2400.71 256.114C2401.38 256.114 2402.05 256.114 2402.74 256.114C2404.84 260.307 2404.72 262.772 2403.76 267.306C2403.29 271.453 2403.29 271.453 2406.11 273.793C2407.01 274.675 2407.92 275.556 2408.85 276.464C2411.7 280.99 2412.49 284.356 2411.9 289.692C2411.31 290.934 2411.03 291.537 2410.63 292.055C2410.25 292.545 2409.77 292.958 2408.85 293.762C2403.52 295.226 2398.74 294.412 2393.47 293.512C2393.21 293.468 2392.95 293.425 2392.69 293.381C2390.94 293.096 2389.18 292.813 2387.42 292.53C2386.58 292.393 2385.74 292.255 2384.87 292.114C2381.34 291.564 2377.8 291.13 2374.25 290.71C2371.43 305.669 2368.65 322.579 2380.02 334.547Z" fill="black"/>
<path d="M2370.18 271.377C2378.2 274.148 2386.2 275.435 2394.6 276.464L2394.6 270.359C2385.72 267.821 2379.06 267.821 2370.18 270.359L2370.18 271.377Z" fill="#F59713"/>
<path fill-rule="evenodd" clip-rule="evenodd" d="M2434.05 347.236C2415.66 348.826 2394.75 346.684 2380.02 334.547C2368.65 322.579 2371.43 305.669 2374.25 290.71C2377.8 291.13 2381.34 291.564 2384.87 292.114L2387.42 292.53C2389.18 292.813 2390.94 293.096 2392.69 293.381C2392.95 293.425 2393.21 293.468 2393.47 293.512C2398.74 294.412 2403.52 295.226 2408.85 293.762C2409.77 292.958 2410.25 292.545 2410.63 292.055C2411.03 291.537 2411.31 290.934 2411.9 289.692C2412.49 284.356 2411.7 280.99 2408.85 276.464L2406.11 273.793C2403.29 271.453 2403.29 271.453 2403.76 267.306C2404.72 262.772 2404.84 260.307 2402.74 256.114L2400.71 256.114L2400.71 253.061L2402.3 250.835C2403.82 247.858 2404.07 247.357 2403.32 243L2457.84 248.5C2458.85 255.103 2457.97 262.248 2455.65 268.324L2454.31 271.472L2452.86 275.001L2451.41 278.312C2450.4 282.178 2451.02 284.054 2452.6 287.657C2453.08 287.665 2453.56 287.674 2454.04 287.683C2456.28 287.727 2458.5 287.77 2460.74 287.657L2462.78 286.64L2464.81 287.657C2466.64 289.087 2468.46 290.401 2470.43 291.64C2476.34 294.227 2483.38 293.423 2489.49 291.727L2492.28 290.71C2493.57 294.785 2493.57 294.785 2493.49 299.136L2493.49 301.648C2493.63 310.435 2492.17 316.684 2487.07 323.986C2474.32 339.599 2453.27 345.221 2434.05 347.236Z" fill="#FFEA48"/>
<path d="M2456.95 244.404C2453.29 236.611 2446.36 230.605 2438.42 227.452C2426.38 223.362 2413.84 220.856 2401.85 226.466C2396.7 229.226 2393.09 231.378 2390.53 236.78L2390.53 238.815L2392.43 238.78L2394.92 238.752L2397.39 238.716C2399.69 238.815 2399.69 238.815 2402.74 239.833C2402.97 241.081 2403.17 242.119 2403.32 243L2457.84 248.5C2457.63 247.105 2457.34 245.735 2456.95 244.404Z" fill="#737373"/>
<path d="M2413.87 302.03C2417.53 298.259 2420.72 297.566 2425.89 297.196C2426.89 297.12 2427.89 297.044 2428.93 296.966C2429.69 296.916 2430.45 296.866 2431.23 296.815C2431.87 298.723 2431.87 298.723 2432.25 300.885C2431.58 301.557 2430.91 302.228 2430.22 302.92C2429.69 304.94 2429.16 306.962 2428.7 308.997C2428.18 311.06 2428.18 311.06 2427.04 313.859C2425.9 316.371 2425.9 316.371 2426.14 320.218C2433.57 322.95 2441.74 323.981 2449.61 322.826C2453.11 322.326 2456.45 322.046 2459.98 321.935C2460.99 321.897 2462 321.859 2463.05 321.82C2466.59 322.371 2467.73 323.526 2469.9 326.323C2470.47 329.312 2470.47 329.312 2469.9 332.429C2466.06 337.936 2460.91 339.197 2454.64 340.569C2450.79 340.991 2446.99 341.055 2443.12 341.014C2442.1 341.006 2441.08 340.999 2440.02 340.991C2429.94 340.768 2419.73 339.577 2412.21 332.115C2405.09 322.886 2407.75 311.115 2413.87 302.03Z" fill="black"/>
<path d="M2408.85 252.043C2410.95 249.054 2410.95 249.054 2413.93 246.956C2418 246.313 2420.05 246.265 2423.47 248.609C2425.52 251.599 2426.07 253.508 2426.15 257.131C2424.89 260.045 2423.77 261.703 2421.25 263.618C2418.09 264.519 2416.06 264.152 2412.92 263.236C2408.42 260.159 2408.01 257.313 2408.85 252.043Z" fill="black"/>
<path fill-rule="evenodd" clip-rule="evenodd" d="M2461.62 204.2C2455.2 212.242 2448.13 221.105 2443.9 230.756L2453.56 235.469C2459.21 231.563 2464.02 227.681 2468.42 222.384C2469.41 221.182 2470.43 219.998 2471.47 218.843L2472.89 217.336L2474.27 215.852C2480.3 209.416 2486.09 202.795 2491.8 196.074L2494 193.469C2491.73 198.708 2488.65 202.296 2484.81 206.406C2483.17 208.119 2481.59 209.847 2480.08 211.675C2478.34 214.571 2478.61 217.211 2479 220.469C2483.21 222.572 2486.94 222.758 2491.44 221.531C2495.35 219.59 2497.98 218.281 2500.21 216.469C2504.83 212.713 2507.69 206.797 2516.5 188.617L2518 185.469C2527.76 189.244 2536.43 191.113 2546.94 190.219C2554.77 188.3 2561.15 185.066 2566 178.469C2570.04 171.142 2571.25 164.602 2569 156.469L2568 153.469C2569.01 153.469 2569.51 153.469 2569.96 153.322C2570.41 153.177 2570.81 152.889 2571.61 152.316C2574.3 150.234 2577.1 148.362 2579.94 146.472L2582.29 144.91C2584.85 143.204 2587.41 141.498 2589.98 139.793C2591.72 138.635 2593.46 137.476 2595.2 136.317C2598.6 134.053 2602 131.789 2605.4 129.525C2610.44 126.169 2615.49 122.813 2620.53 119.455L2622.89 117.883C2626.74 115.316 2630.59 112.749 2634.43 110.154C2639.75 106.543 2645.16 103.128 2650.69 99.8436C2650.89 99.722 2651.1 99.6006 2651.31 99.4792C2654.23 97.765 2657.15 96.057 2659.94 94.1261C2665.64 90.1589 2671.62 86.9479 2677.82 83.8534C2679.78 82.8822 2681.74 81.9101 2683.7 80.9249C2692.31 76.5781 2700.92 72.7445 2710 69.4686L2712 73.4686C2703.39 81.5312 2703.39 81.5312 2689.68 111.515C2688.27 114.654 2686.85 117.791 2685.41 120.92C2684.45 123.019 2683.47 125.146 2682.47 127.299C2668.85 156.77 2653.04 190.966 2653.94 223.094C2653.98 223.745 2654.03 224.386 2654.09 225.017C2654.45 229.336 2654.77 233.186 2651.7 236.773C2647.47 240.998 2645.24 245.97 2643 251.469C2639.72 262.332 2637.55 275.149 2642.56 285.781L2644 288.469L2640 288.469L2638.25 285.969L2637 283.469C2636.15 283.525 2635.69 283.556 2635.24 283.653C2634.69 283.772 2634.17 283.988 2633 284.469L2632 286.969C2631.51 288.919 2631.31 289.71 2631.01 290.455C2630.8 290.963 2630.54 291.45 2630.1 292.269C2624.84 302.489 2623.87 314.112 2623.65 325.431L2623.62 328.469C2623.56 333.062 2623.55 337.491 2624.57 341.989C2627.15 350.333 2632.15 356.255 2639.87 360.406C2668.52 372.956 2709.18 359.883 2736.97 350.508C2746.61 347.089 2756.35 343.054 2761.05 333.293L2761.75 331.156C2763.93 324.887 2763.25 318.571 2761.83 312.228L2761.31 310.094C2759.21 301.453 2756.83 293.84 2750.25 287.531C2743.36 282.069 2736.72 281.114 2728.09 281.363L2726 281.469C2725.51 276.477 2724.71 271.905 2723.19 267.127C2717.26 249.558 2710.37 235.211 2693.09 226.465L2691 225.469C2690.92 223.954 2690.88 223.197 2691 222.469C2691.12 221.741 2691.41 221.042 2691.99 219.644L2693.38 216.211C2694.16 214.271 2694.94 212.331 2695.73 210.395C2696.29 209.021 2696.84 207.647 2697.4 206.272C2698.51 203.525 2699.62 200.779 2700.74 198.034C2701.86 195.291 2702.97 192.547 2704.06 189.795C2717.27 156.252 2735.07 124.041 2753.91 93.3555L2755.5 90.7811L2756.99 88.3297L2758.41 86.0819C2759.8 83.8341 2760.68 82.6552 2762.98 81.3216C2771.73 77.6265 2780.05 74.1069 2787 67.4686C2794.15 59.6463 2797.87 51.5126 2797.51 40.8201C2796.3 32.8614 2792.41 25.5513 2785.91 20.703L2784 19.4686C2775.61 14.0206 2767.05 11.1302 2757.01 11.0001L2754.25 11.0311C2750.49 11.0636 2746.75 11.1708 2743 11.4686C2730.57 13.1402 2717.83 19.5204 2710 29.4686C2705.21 36.1529 2701.34 43.0966 2702.37 51.5311L2703 53.4686C2702.23 53.4686 2701.57 53.4686 2700.92 53.5193C2697.27 53.8047 2693.74 55.6943 2670.35 68.2074L2668 69.4686C2635.48 86.7745 2604.96 109.578 2578.12 134.781C2573.52 139.146 2568.85 143.371 2564 147.469C2561.33 142.975 2558.43 139.884 2554.39 136.57L2553 135.469C2555.76 133.216 2558.48 130.935 2561.13 128.555C2562.79 127.046 2564.46 125.543 2566.13 124.043L2569 121.469C2577.95 113.358 2587.29 106.265 2597.34 99.5623C2599.57 98.0857 2601.8 96.608 2604 95.1014C2617.46 85.8514 2631.52 77.8458 2645.9 70.1143L2649.31 68.2811L2652.7 66.4654C2654.36 65.5706 2656.04 64.6915 2657.72 63.8131C2667.08 58.9016 2676.41 54.0077 2684 46.4686L2683 41.4686C2644.75 39.2183 2596.44 76.5313 2567.83 99.1912L2565 101.469C2559.16 105.996 2553.63 110.72 2548.35 115.891L2546.44 117.781L2544.59 119.597L2542.87 121.332C2541.14 123.069 2539.99 124.495 2538.82 126.665L2538 128.469C2535.66 128.062 2533.36 127.722 2531 127.469C2520.54 126.689 2511.09 128.447 2502.95 135.387C2498.3 140.353 2495.73 145.76 2495.69 152.594L2496 156.469C2490.22 156.013 2485.31 157.334 2480 159.469C2467.24 165.774 2456.71 176.955 2452 190.469C2451.16 194.53 2451.3 197.353 2453.56 200.969C2454.64 201.633 2455.24 202.003 2455.9 202.218C2456.72 202.487 2457.62 202.51 2459.65 202.562L2463 202.469C2462.54 203.041 2462.08 203.618 2461.62 204.2ZM2486 176.469C2481.26 183.583 2475.89 190.348 2469 195.469C2468.92 194.443 2468.89 193.939 2469 193.47C2469.11 193.017 2469.36 192.596 2469.85 191.769C2473.77 185.343 2478.38 178.548 2486 176.469ZM2519.08 162.605L2519 164.469L2517 163.469C2512.96 158.598 2512.39 155.559 2513 149.469C2513.96 148.439 2514.45 147.916 2515 147.468C2515.57 147.005 2516.21 146.622 2517.5 145.844C2523.14 143.629 2529.2 143.691 2535 145.469C2542.67 148.634 2549.08 152.928 2553 160.469C2553.01 160.583 2553.02 160.696 2553.03 160.808C2553.3 164.07 2553.5 166.462 2552 169.469C2548.93 171.565 2545.66 173.2 2541.97 173.797C2535.59 173.948 2528.83 172.895 2524 168.469C2527.37 168.163 2529.56 167.769 2532.37 165.844C2534.65 162.515 2534.56 160.418 2534 156.469C2533.18 155.232 2532.77 154.623 2532.26 154.119C2531.76 153.629 2531.17 153.239 2530 152.469C2526.74 151.993 2524.73 152.171 2521.69 153.406C2520.93 154.331 2520.44 154.93 2520.1 155.605C2519.48 156.847 2519.38 158.347 2519.08 162.605ZM2683.91 346.235C2671.56 348.187 2654.54 350.878 2644.12 343.406C2639.32 336.768 2639.85 329.369 2640.49 321.484L2640.81 317.969C2640.87 317.248 2640.93 316.526 2640.98 315.805C2641.25 312.352 2641.52 308.899 2642 305.469C2650.24 303.093 2654.5 301.867 2658.84 301.264C2663.47 300.621 2668.19 300.687 2677.96 300.822C2681.6 300.55 2685.24 300.277 2688.88 299.992C2691.29 299.803 2693.69 299.617 2696.1 299.435L2699.54 299.176L2702.85 298.914L2705.92 298.691C2708.5 298.495 2710.63 298.392 2713.16 298.912C2715.45 299.605 2717.62 300.163 2720 300.469C2721.48 299.295 2722.19 298.736 2722.99 298.472C2723.72 298.232 2724.53 298.234 2726.07 298.238L2729.56 298.281C2731.71 298.293 2733.86 298.346 2736 298.469C2739.93 300.435 2741.73 303.771 2743.27 307.773L2744.25 311.344C2745.63 316.167 2746.63 320.453 2746 325.469C2732.72 333.369 2725.93 337.407 2718.63 339.971C2710.99 342.652 2702.79 343.72 2686 345.906C2685.32 346.012 2684.62 346.122 2683.91 346.235ZM2709 282.469L2656 286.469C2656 285.175 2655.99 283.866 2655.98 282.547C2655.9 273.822 2655.82 264.639 2659 256.527C2662.4 249.547 2665.69 244.492 2673 241.469C2678.4 240.037 2682.78 240.284 2688 242.469C2695.39 247.408 2700.22 254.081 2703.45 262.252L2704.25 264.344C2706.54 270.352 2707.72 276.063 2709 282.469ZM2677 224.469L2664 227.469C2664.5 225.238 2664.7 224.345 2664.99 223.483C2665.19 222.908 2665.42 222.347 2665.81 221.411C2668.42 215.285 2670.42 209.057 2672.35 202.687C2678.94 180.776 2686.87 159.487 2695.91 138.468L2696.75 136.531C2699.59 129.945 2702.49 123.406 2705.72 116.998C2708.38 111.736 2710.95 106.489 2713.21 101.038C2713.84 99.4748 2714.48 97.9136 2715.13 96.3541L2716.13 93.9373C2718.3 88.7233 2720.61 83.5825 2723 78.4686L2725.7 79.0545L2729.25 79.8436C2733.12 80.6939 2736.55 81.5033 2740 83.4686C2727.64 103.677 2716.12 124.274 2705.88 145.638L2705 147.469C2697.49 163.132 2690.29 178.874 2684.4 195.228L2683.69 197.219C2681.09 204.366 2678.88 211.324 2677.71 218.859L2677 224.469ZM2721.37 52.0311L2719 50.4686L2719.19 47.8436C2720.72 41.4741 2725.54 37.5442 2730.71 33.8553C2741 27.6227 2752.81 26.2099 2764.46 28.7459C2771.24 30.6754 2776.3 33.3426 2780 39.4686C2780.64 43.3243 2780.63 46.821 2779.22 50.492C2775.77 56.0749 2770.11 60.3018 2764.12 62.8436C2752.08 67.0258 2739.84 67.9677 2727.92 62.7733C2726.93 62.2163 2726.37 61.8992 2725.97 61.4381C2725.45 60.8287 2725.22 59.9676 2724.69 57.9686C2724.34 56.222 2724.17 55.347 2723.76 54.6058C2723.35 53.8616 2722.69 53.2522 2721.37 52.0311Z" fill="black"/>
<path d="M2451.06 237.238L2453.56 235.469L2443.9 230.756C2442.66 233.593 2441.66 236.497 2441 239.469L2445 241.469C2447.03 240.067 2449.04 238.658 2451.06 237.238Z" fill="#FFEA48"/>
<path d="M2666.12 265.031C2667.09 261.112 2667.64 259.677 2671 257.469C2674.44 256.906 2674.44 256.906 2678 257.469C2681.39 259.919 2682.79 261.333 2683.56 265.469C2682.86 269.239 2681.82 270.873 2679 273.469C2675.37 274.705 2673.76 274.813 2670.25 273.219C2666.92 270.631 2665.97 269.296 2666.12 265.031Z" fill="black"/>
<path d="M2737 44.4687C2739.12 41.9687 2739.12 41.9687 2742 40.4687C2746.26 40.3939 2748.24 40.8203 2751.5 43.5937C2753.48 47.3848 2753.13 49.3967 2752 53.4687C2750.87 55.3437 2750.87 55.3437 2749 56.4687C2745.6 57.2731 2743.07 57.7873 2739.69 56.7812C2735.27 53.3429 2735.62 49.6375 2737 44.4687Z" fill="black"/>
<path d="M3327.47 159.621C3330.91 151.323 3337.54 145.307 3345.75 141.905C3347.56 141.259 3349.38 140.632 3351.22 140.061C3351.17 139.174 3351.12 138.288 3351.07 137.374C3350.73 125.938 3352.01 116.959 3359.61 108.072C3369.36 98.1453 3381.57 93.4419 3395.41 93C3413.2 93.1983 3429.84 99.1877 3442.98 111.188C3452.27 120.823 3454.47 131.927 3454.29 144.827C3454.01 151.339 3452.06 157.333 3449.92 163.464C3455.79 163.779 3461.08 163.627 3466.2 160.412C3468.15 157.358 3468.15 157.358 3469.25 154.306C3472.54 152.661 3474.77 152.804 3478.41 153.289C3485.84 158.26 3487.49 168.352 3489.18 176.525C3491.39 193.396 3489.52 208.684 3478.94 222.481C3464.1 240.096 3440.65 248.259 3418.37 250.972C3413.7 251.26 3409.06 251.312 3404.38 251.29C3403.13 251.285 3401.88 251.28 3400.59 251.275C3381.17 251.025 3361.72 247.03 3346.86 233.61C3338.42 224.78 3334 213.525 3333.66 201.367C3333.9 191.175 3336.08 181.332 3339.01 171.604C3337.85 170.975 3336.7 170.345 3335.51 169.697C3332.01 167.789 3332.01 167.789 3330.86 165.499C3329.86 165.163 3328.85 164.828 3327.81 164.482C3326.79 162.447 3326.79 162.447 3327.47 159.621ZM3349.18 158.377C3357.2 161.148 3365.2 162.435 3373.6 163.464C3373.6 161.449 3373.6 159.435 3373.6 157.359C3364.72 154.821 3358.06 154.821 3349.18 157.359C3349.18 157.695 3349.18 158.031 3349.18 158.377ZM3359.02 221.547C3373.75 233.684 3394.66 235.826 3413.05 234.236C3432.27 232.221 3453.32 226.599 3466.07 210.986C3471.17 203.684 3472.63 197.435 3472.49 188.648C3472.49 187.405 3472.49 187.405 3472.49 186.136C3472.57 181.785 3472.57 181.785 3471.28 177.71C3469.9 178.213 3469.9 178.213 3468.49 178.727C3462.38 180.423 3455.34 181.227 3449.43 178.64C3447.46 177.401 3445.64 176.087 3443.81 174.657C3443.14 174.321 3442.47 173.986 3441.78 173.64C3441.1 173.975 3440.43 174.311 3439.74 174.657C3437.02 174.794 3434.33 174.701 3431.6 174.657C3430.02 171.054 3429.4 169.178 3430.41 165.312C3430.89 164.22 3431.36 163.127 3431.86 162.001C3432.58 160.254 3432.58 160.254 3433.31 158.472C3433.76 157.433 3434.2 156.394 3434.65 155.324C3437.46 147.965 3438.15 139.036 3435.95 131.404C3432.29 123.611 3425.36 117.605 3417.42 114.452C3405.38 110.362 3392.84 107.856 3380.85 113.466C3375.7 116.226 3372.09 118.378 3369.53 123.78C3369.53 124.452 3369.53 125.124 3369.53 125.815C3370.16 125.804 3370.78 125.792 3371.43 125.78C3372.25 125.77 3373.07 125.761 3373.92 125.752C3374.73 125.74 3375.55 125.728 3376.39 125.716C3378.69 125.815 3378.69 125.815 3381.74 126.833C3383.13 134.256 3383.13 134.256 3381.3 137.835C3380.51 138.937 3380.51 138.937 3379.71 140.061C3379.71 141.068 3379.71 142.076 3379.71 143.114C3380.38 143.114 3381.05 143.114 3381.74 143.114C3383.84 147.307 3383.72 149.772 3382.76 154.306C3382.29 158.453 3382.29 158.453 3385.11 160.793C3386.01 161.675 3386.92 162.556 3387.85 163.464C3390.7 167.99 3391.49 171.356 3390.9 176.692C3389.75 179.109 3389.75 179.109 3387.85 180.762C3382.26 182.297 3377.28 181.327 3371.69 180.381C3369.94 180.096 3368.18 179.813 3366.42 179.53C3365.58 179.393 3364.74 179.255 3363.87 179.114C3360.34 178.564 3356.8 178.13 3353.25 177.71C3350.43 192.669 3347.65 209.579 3359.02 221.547Z" fill="black"/>
<path d="M3359.02 221.547C3373.75 233.684 3394.66 235.826 3413.05 234.236C3432.27 232.221 3453.32 226.599 3466.07 210.986C3471.17 203.684 3472.63 197.435 3472.49 188.648L3472.49 186.136C3472.57 181.785 3472.57 181.785 3471.28 177.71L3468.49 178.727C3462.38 180.423 3455.34 181.227 3449.43 178.64C3447.46 177.401 3445.64 176.087 3443.81 174.657L3441.78 173.64L3439.74 174.657C3437.02 174.794 3434.33 174.701 3431.6 174.657C3430.02 171.054 3429.4 169.178 3430.41 165.312L3431.86 162.001L3433.31 158.472L3434.65 155.324C3437.46 147.965 3438.15 139.036 3435.95 131.404C3432.29 123.611 3425.36 117.605 3417.42 114.452C3405.38 110.362 3392.84 107.856 3380.85 113.466C3375.7 116.226 3372.09 118.378 3369.53 123.78L3369.53 125.815L3371.43 125.78L3373.92 125.752L3376.39 125.716C3378.69 125.815 3378.69 125.815 3381.74 126.833C3383.13 134.256 3383.13 134.256 3381.3 137.835L3379.71 140.061L3379.71 143.114L3381.74 143.114C3383.84 147.307 3383.72 149.772 3382.76 154.306C3382.29 158.453 3382.29 158.453 3385.11 160.793L3387.85 163.464C3390.7 167.99 3391.49 171.356 3390.9 176.692C3389.75 179.109 3389.75 179.109 3387.85 180.762C3382.26 182.297 3377.28 181.327 3371.69 180.381C3369.94 180.096 3368.18 179.813 3366.42 179.53L3363.87 179.114C3360.34 178.564 3356.8 178.13 3353.25 177.71C3350.43 192.669 3347.65 209.579 3359.02 221.547Z" fill="#FFEA48"/>
<path d="M3349.18 158.377C3357.2 161.148 3365.2 162.435 3373.6 163.464L3373.6 157.359C3364.72 154.821 3358.06 154.821 3349.18 157.359L3349.18 158.377Z" fill="#F59713"/>
<path d="M3392.87 189.03C3396.53 185.259 3399.72 184.566 3404.89 184.196C3405.89 184.12 3406.89 184.044 3407.93 183.966C3408.69 183.916 3409.45 183.866 3410.23 183.815C3410.87 185.723 3410.87 185.723 3411.25 187.885C3410.58 188.557 3409.91 189.228 3409.22 189.92C3408.69 191.94 3408.16 193.962 3407.7 195.997C3407.18 198.06 3407.18 198.06 3406.04 200.859C3404.9 203.371 3404.9 203.371 3405.14 207.218C3412.57 209.95 3420.74 210.981 3428.61 209.826C3432.11 209.326 3435.45 209.046 3438.98 208.935C3439.99 208.897 3441 208.859 3442.05 208.82C3445.59 209.371 3446.73 210.526 3448.9 213.323C3449.47 216.312 3449.47 216.312 3448.9 219.429C3445.06 224.936 3439.91 226.197 3433.64 227.569C3429.79 227.991 3425.99 228.055 3422.12 228.014C3421.1 228.006 3420.08 227.999 3419.02 227.991C3408.94 227.768 3398.73 226.577 3391.21 219.115C3384.09 209.886 3386.75 198.115 3392.87 189.03Z" fill="black"/>
<path d="M3387.85 139.043C3389.95 136.054 3389.95 136.054 3392.93 133.956C3397 133.313 3399.05 133.265 3402.47 135.609C3404.52 138.599 3405.07 140.508 3405.15 144.131C3403.89 147.045 3402.77 148.703 3400.25 150.618C3397.09 151.519 3395.06 151.152 3391.92 150.236C3387.42 147.159 3387.01 144.313 3387.85 139.043Z" fill="black"/>
<path d="M3184.72 232.161C3189.62 218.243 3200.43 202.023 3212.56 193.661C3214.74 191.881 3215.31 189.933 3216.21 187.314C3218.21 186.376 3218.21 186.376 3220.21 186.314C3221.2 187.304 3221.2 187.304 3222.21 188.314C3222.21 189.304 3222.21 190.294 3222.21 191.314C3223.1 191.044 3223.99 190.773 3224.9 190.495C3234.63 187.699 3243.93 186.398 3254 185.705C3255.58 185.586 3257.16 185.466 3258.74 185.345C3263.56 184.981 3268.39 184.645 3273.21 184.314C3274.68 184.211 3276.14 184.109 3277.6 184.006C3286.83 183.362 3296.07 182.768 3305.31 182.192C3308.39 182 3311.47 181.805 3314.54 181.61C3321.8 181.151 3329.05 180.695 3336.31 180.242C3343.74 179.778 3351.17 179.308 3358.6 178.836C3365.06 178.425 3371.52 178.018 3377.98 177.613C3381.81 177.373 3385.63 177.132 3389.46 176.889C3393.03 176.661 3396.61 176.437 3400.19 176.216C3402.1 176.097 3404.01 175.975 3405.92 175.851C3411.71 175.498 3417.5 175.222 3423.3 175.101C3424.84 175.066 3424.84 175.066 3426.4 175.03C3429.55 175.347 3431.28 176.219 3433.9 177.939C3436.79 179.88 3436.79 179.88 3440.12 180.144C3440.82 179.941 3441.52 179.737 3442.23 179.527C3450.74 177.556 3459.49 177.624 3468.18 177.278C3470.15 177.195 3472.11 177.11 3474.07 177.025C3479.24 176.803 3484.4 176.591 3489.57 176.38C3494.74 176.168 3499.9 175.946 3505.07 175.726C3515.64 175.276 3526.21 174.84 3536.78 174.412C3539.03 174.321 3541.28 174.229 3543.54 174.137C3568.46 173.12 3568.46 173.12 3579.84 173.064C3581.49 173.033 3581.49 173.033 3583.18 173.001C3589.59 172.97 3594.4 173.524 3600.21 176.314C3602.21 178.314 3602.21 178.314 3602.4 181.376C3602.27 184.208 3602 186.782 3601.59 189.564C3600.79 196.097 3601.68 203.641 3605.21 209.314C3606.2 209.912 3607.19 210.51 3608.21 211.126C3612.03 213.907 3612.42 215.73 3613.21 220.314C3613.42 221.324 3613.63 222.335 3613.84 223.376C3612.97 227.468 3610.84 228.715 3607.55 231.114C3604.78 232.534 3602.28 232.94 3599.21 233.314C3599.33 233.962 3599.46 234.611 3599.58 235.279C3604.22 260.47 3605.88 283.457 3591.09 305.876C3563.1 345.34 3504.72 354.79 3460.65 365.814C3459.8 366.027 3458.94 366.241 3458.06 366.461C3433.38 372.614 3433.38 372.614 3424.28 372.314C3418.89 371.991 3418.89 371.991 3414.21 374.314C3407.27 375.207 3400.61 373.787 3393.9 372.118C3392.95 371.89 3391.99 371.662 3391.01 371.427C3388.97 370.941 3386.94 370.45 3384.91 369.954C3381.74 369.18 3378.57 368.42 3375.39 367.663C3371.21 366.667 3367.04 365.668 3362.86 364.664C3324.42 355.45 3288 350.73 3248.44 353.453C3213.83 355.828 3213.83 355.828 3205.34 349.001C3197.16 338.658 3199.21 327.034 3200.62 314.743C3201.21 309.949 3201.81 305.156 3202.42 300.364C3203.87 288.932 3204.91 277.537 3205.62 266.033C3205.68 264.955 3205.75 263.877 3205.82 262.767C3205.9 261.362 3205.9 261.362 3205.98 259.928C3206.21 257.331 3206.65 254.858 3207.21 252.314C3206.27 252.366 3206.27 252.366 3205.31 252.419C3199.44 252.605 3194.37 252.339 3189.21 249.314C3184.18 244.024 3183.05 239.246 3184.72 232.161ZM3202.21 235.314C3204.19 235.314 3206.17 235.314 3208.21 235.314C3208.54 231.684 3208.87 228.054 3209.21 224.314C3206.64 226.89 3205.53 228.346 3204.03 231.501C3203.68 232.217 3203.34 232.932 3202.98 233.669C3202.73 234.212 3202.47 234.754 3202.21 235.314ZM3218.21 337.314C3220.59 337.529 3222.83 337.594 3225.21 337.564C3226.35 337.558 3226.35 337.558 3227.51 337.552C3237.68 337.412 3247.83 336.695 3257.98 336.026C3302.53 333.122 3344.5 342.732 3387.46 353.233C3393.69 354.745 3399.92 356.114 3406.21 357.314C3406.19 356.635 3406.18 355.957 3406.16 355.258C3406.03 346.466 3406.83 337.853 3407.79 329.13C3407.97 327.492 3408.14 325.853 3408.32 324.215C3411.14 298.264 3414.32 272.352 3417.42 246.434C3418.31 238.972 3419.2 231.511 3420.09 224.048C3420.5 220.591 3420.92 217.134 3421.33 213.677C3421.58 211.576 3421.83 209.476 3422.08 207.376C3422.2 206.425 3422.31 205.474 3422.43 204.494C3422.59 203.178 3422.59 203.178 3422.75 201.835C3422.84 201.078 3422.93 200.321 3423.02 199.541C3423.23 197.122 3423.24 194.74 3423.21 192.314C3406.66 192.911 3390.14 193.828 3373.6 194.901C3369.44 195.171 3365.28 195.433 3361.12 195.695C3360.05 195.762 3360.05 195.762 3358.96 195.831C3357.5 195.923 3356.04 196.015 3354.59 196.106C3344.95 196.713 3335.32 197.323 3325.69 197.951C3317 198.516 3308.32 199.067 3299.64 199.599C3298.94 199.642 3298.23 199.685 3297.51 199.729C3272.4 201.26 3247.37 201.827 3222.21 201.314C3222.28 202.233 3222.35 203.153 3222.43 204.101C3222.9 210.455 3223.34 216.771 3223.38 223.142C3223.39 223.805 3223.39 224.469 3223.39 225.153C3223.4 227.29 3223.4 229.427 3223.4 231.564C3223.4 232.317 3223.4 233.07 3223.4 233.846C3223.33 260.457 3221.19 286.65 3217.89 313.05C3217.78 313.939 3217.67 314.828 3217.56 315.744C3217.35 317.403 3217.14 319.062 3216.92 320.719C3215.29 329.661 3215.29 329.661 3218.21 337.314ZM3417.21 361.314C3417.94 361.016 3418.66 360.719 3419.41 360.413C3423.85 358.674 3428.4 357.333 3432.96 355.939C3433.89 355.647 3434.83 355.356 3435.79 355.056C3441.57 353.287 3447.38 351.767 3453.27 350.411C3462.77 348.224 3472.18 345.716 3481.59 343.126C3482.89 342.768 3482.89 342.768 3484.22 342.403C3505.74 336.458 3527.1 330.164 3547.21 320.314C3547.82 320.023 3548.43 319.732 3549.06 319.432C3557.28 315.485 3563.81 310.794 3570.21 304.314C3570.85 303.7 3571.48 303.086 3572.14 302.454C3582.37 291.839 3586.51 278.338 3586.53 263.916C3586.35 255.468 3584.83 247.179 3583.32 238.886C3583.28 238.695 3583.25 238.504 3583.21 238.314C3579.6 237.108 3577.93 237.602 3574.23 238.406C3572.37 238.802 3572.37 238.802 3570.48 239.207C3569.12 239.505 3567.76 239.804 3566.4 240.103C3564.98 240.407 3563.57 240.71 3562.16 241.013C3558.41 241.816 3554.67 242.629 3550.93 243.443C3544.32 244.882 3537.7 246.305 3531.08 247.728C3530.01 247.959 3530.01 247.959 3528.91 248.196C3485.62 257.512 3485.62 257.512 3474.15 257.314C3466.78 257.243 3459.55 257.599 3452.21 258.314C3451.88 256.664 3451.55 255.014 3451.21 253.314C3452.2 253.314 3453.19 253.314 3454.21 253.314C3449.94 240.052 3444.6 227.669 3438.21 215.314C3437.88 215.314 3437.55 215.314 3437.21 215.314C3437.06 216.602 3436.9 217.891 3436.75 219.219C3435.28 231.498 3433.81 243.777 3432.34 256.055C3431.58 262.365 3430.82 268.674 3430.07 274.983C3424.3 323.236 3424.3 323.236 3421.98 340.739C3421.77 342.38 3421.77 342.38 3421.56 344.054C3420.73 350.088 3419.38 355.617 3417.21 361.314ZM3441.15 204.091C3442.45 204.665 3442.45 204.665 3443.78 205.251C3455.88 211.645 3462.22 226.685 3466.21 239.314C3466.67 241.655 3466.97 243.938 3467.21 246.314C3471.36 246.314 3474.49 245.37 3478.35 244.071C3487.12 241.236 3495.97 239.159 3504.96 237.189C3506.65 236.813 3508.34 236.436 3510.03 236.06C3520.46 233.748 3530.9 231.524 3541.35 229.321C3542.54 229.071 3543.73 228.82 3544.95 228.562C3550.85 227.319 3556.76 226.083 3562.66 224.856C3563.76 224.627 3564.85 224.399 3565.98 224.163C3568.05 223.73 3570.12 223.301 3572.19 222.874C3573.56 222.587 3573.56 222.587 3574.96 222.294C3575.76 222.128 3576.56 221.962 3577.39 221.791C3579.22 221.476 3579.22 221.476 3580.21 220.314C3580.36 218.775 3580.44 217.23 3580.49 215.685C3580.53 214.731 3580.57 213.778 3580.61 212.796C3580.64 211.791 3580.68 210.786 3580.71 209.751C3580.78 207.791 3580.86 205.832 3580.93 203.872C3580.96 202.999 3580.99 202.125 3581.02 201.225C3581.26 197.561 3581.75 193.956 3582.21 190.314C3568.52 190.194 3554.88 190.494 3541.2 191.054C3537.83 191.193 3534.45 191.326 3531.08 191.458C3523.91 191.739 3516.75 192.026 3509.59 192.314C3501.27 192.648 3492.94 192.979 3484.62 193.305C3481.33 193.435 3478.04 193.569 3474.75 193.704C3462.9 194.176 3451.07 194.432 3439.21 194.314C3439.17 195.597 3439.13 196.88 3439.09 198.203C3439.07 198.924 3439.05 199.646 3439.02 200.39C3439.02 202.533 3439.02 202.533 3441.15 204.091Z" fill="black"/>
<path d="M3218.21 337.314C3220.59 337.529 3222.83 337.594 3225.21 337.564L3227.51 337.552C3237.68 337.412 3247.83 336.695 3257.98 336.026C3302.53 333.122 3344.5 342.732 3387.46 353.233C3393.69 354.745 3399.92 356.114 3406.21 357.314L3406.16 355.258C3406.03 346.466 3406.83 337.853 3407.79 329.13C3407.97 327.492 3408.14 325.853 3408.32 324.215C3411.14 298.264 3414.32 272.352 3417.42 246.434C3418.31 238.972 3419.2 231.511 3420.09 224.048C3420.5 220.591 3420.92 217.134 3421.33 213.677C3421.58 211.576 3421.83 209.476 3422.08 207.376L3422.43 204.494L3422.75 201.835L3423.02 199.541C3423.23 197.122 3423.24 194.74 3423.21 192.314C3406.66 192.911 3390.14 193.828 3373.6 194.901C3369.44 195.171 3365.28 195.433 3361.12 195.695L3358.96 195.831L3354.59 196.106C3344.95 196.713 3335.32 197.323 3325.69 197.951C3317 198.516 3308.32 199.067 3299.64 199.599L3297.51 199.729C3272.4 201.26 3247.37 201.827 3222.21 201.314L3222.43 204.101C3222.9 210.455 3223.34 216.771 3223.38 223.142L3223.39 225.153C3223.4 227.29 3223.4 229.427 3223.4 231.564L3223.4 233.846C3223.33 260.457 3221.19 286.65 3217.89 313.05L3217.56 315.744C3217.35 317.403 3217.14 319.062 3216.92 320.719C3215.29 329.661 3215.29 329.661 3218.21 337.314Z" fill="white"/>
<path d="M3441.15 204.091L3443.78 205.251C3455.88 211.645 3462.22 226.685 3466.21 239.314C3466.67 241.655 3466.97 243.938 3467.21 246.314C3471.36 246.314 3474.49 245.37 3478.35 244.071C3487.12 241.236 3495.97 239.159 3504.96 237.189C3506.65 236.813 3508.34 236.436 3510.03 236.06C3520.46 233.748 3530.9 231.524 3541.35 229.321L3544.95 228.562C3550.85 227.319 3556.76 226.083 3562.66 224.856L3565.98 224.163C3568.05 223.73 3570.12 223.301 3572.19 222.874L3574.96 222.294L3577.39 221.791C3579.22 221.476 3579.22 221.476 3580.21 220.314C3580.36 218.775 3580.44 217.23 3580.49 215.685L3580.61 212.796L3580.71 209.751C3580.78 207.791 3580.86 205.832 3580.93 203.872L3581.02 201.225C3581.26 197.561 3581.75 193.956 3582.21 190.314C3568.52 190.194 3554.88 190.494 3541.2 191.054C3537.83 191.193 3534.45 191.326 3531.08 191.458C3523.91 191.739 3516.75 192.026 3509.59 192.314C3501.27 192.648 3492.94 192.979 3484.62 193.305C3481.33 193.435 3478.04 193.569 3474.75 193.704C3462.9 194.176 3451.07 194.432 3439.21 194.314L3439.09 198.203L3439.02 200.39C3439.02 202.533 3439.02 202.533 3441.15 204.091Z" fill="white"/>
<path d="M3417.21 361.314L3419.41 360.413C3423.85 358.674 3428.4 357.333 3432.96 355.939L3435.79 355.056C3441.57 353.287 3447.38 351.767 3453.27 350.411C3462.77 348.224 3472.18 345.716 3481.59 343.126L3484.22 342.403C3505.74 336.458 3527.1 330.164 3547.21 320.314L3549.06 319.432C3557.28 315.485 3563.81 310.794 3570.21 304.314L3572.14 302.454C3582.37 291.839 3586.51 278.338 3586.53 263.916C3586.35 255.468 3584.83 247.179 3583.32 238.886L3583.21 238.314C3579.6 237.108 3577.93 237.602 3574.23 238.406L3570.48 239.207L3566.4 240.103C3564.98 240.407 3563.57 240.71 3562.16 241.013C3558.41 241.816 3554.67 242.629 3550.93 243.443C3544.32 244.882 3537.7 246.305 3531.08 247.728L3528.91 248.196C3485.62 257.512 3485.62 257.512 3474.15 257.314C3466.78 257.243 3459.55 257.599 3452.21 258.314L3451.21 253.314L3454.21 253.314C3449.94 240.052 3444.6 227.669 3438.21 215.314L3437.21 215.314L3436.75 219.219C3435.28 231.498 3433.81 243.777 3432.34 256.055C3431.58 262.365 3430.82 268.674 3430.07 274.983C3424.3 323.236 3424.3 323.236 3421.98 340.739L3421.56 344.054C3420.73 350.088 3419.38 355.617 3417.21 361.314Z" fill="white"/>
<path d="M3353.72 217.278C3354.72 213.303 3357.67 211.278 3361 209.196C3367.06 206.778 3374.98 207.811 3381.15 209.501C3384.65 210.448 3384.65 210.448 3388.03 208.814C3393.15 206.401 3397.9 207.803 3403.21 209.314C3406.89 211.334 3407.86 212.337 3409.28 216.251C3409.21 219.314 3409.21 219.314 3407.9 222.064C3404.53 224.882 3401.83 225.271 3397.55 225.857C3394.95 226.208 3394.95 226.208 3392.21 228.314C3393.08 228.458 3393.95 228.602 3394.84 228.751C3395.95 228.937 3397.07 229.122 3398.21 229.314C3399.26 229.437 3400.32 229.561 3401.4 229.689C3404.21 230.314 3404.21 230.314 3406.03 231.439C3407.94 234.469 3408.21 236.74 3408.21 240.314C3406.5 243.347 3404.37 245.736 3401.21 247.314C3369.6 251.779 3369.6 251.779 3358.21 247.314C3355.58 245.011 3355.27 243.784 3354.84 240.314C3355.27 236.887 3355.82 235.758 3358.21 233.314C3360.93 232.521 3360.93 232.521 3364.15 232.126C3365.3 231.98 3366.44 231.835 3367.63 231.685C3372.82 231.147 3378.01 230.67 3383.21 230.314C3377.76 226.68 3372.69 225.824 3366.21 226.314C3365 226.561 3363.78 226.809 3362.53 227.064C3359.21 227.314 3359.21 227.314 3356.28 225.876C3353.94 222.974 3353.48 221 3353.72 217.278Z" fill="black"/>
<path d="M3230.01 227.157C3229.99 226.054 3229.98 224.95 3229.96 223.814C3229.94 222.71 3229.91 221.607 3229.88 220.47C3230.25 216.924 3231.08 215.142 3233.21 212.314C3238.07 208.854 3241.13 207.661 3247.21 208.314C3253.42 209.555 3253.42 209.555 3255.83 211.864C3257.82 215.38 3258.15 218.777 3258.59 222.751C3258.69 223.502 3258.8 224.253 3258.91 225.026C3259.34 228.688 3259.44 230.786 3257.94 234.224C3254.43 238.467 3250.57 239.016 3245.4 239.751C3244.7 239.879 3244 240.008 3243.28 240.14C3240.43 240.542 3238.02 240.716 3235.4 239.408C3232.94 237.536 3231.39 235.823 3230.35 232.907C3230.25 230.99 3230.13 229.073 3230.01 227.157Z" fill="black"/>
</svg>
